<?xml version="1.0" encoding="utf-8"?>
<!-- Generator: Adobe Illustrator 16.0.0, SVG Export Plug-In . SVG Version: 6.00 Build 0)  -->
<!DOCTYPE svg PUBLIC "-//W3C//DTD SVG 1.1//EN" "http://www.w3.org/Graphics/SVG/1.1/DTD/svg11.dtd">
<svg version="1.1" id="Ebene_1" xmlns="http://www.w3.org/2000/svg" xmlns:xlink="http://www.w3.org/1999/xlink" x="0px" y="0px"
	 width="81.194px" height="17.711px" viewBox="0 0 81.194 17.711" enable-background="new 0 0 81.194 17.711" xml:space="preserve">
<g>
	<path d="M17.87,17.711c-0.568,0-1.084-0.054-1.551-0.161c-0.465-0.106-0.865-0.268-1.199-0.482
		c-0.334-0.214-0.592-0.473-0.773-0.775c-0.184-0.303-0.275-0.656-0.275-1.06c0-0.392,0.121-0.764,0.359-1.116
		c0.24-0.354,0.566-0.675,0.982-0.965v-0.076c-0.227-0.139-0.418-0.331-0.576-0.577c-0.156-0.246-0.236-0.552-0.236-0.918
		c0-0.391,0.107-0.731,0.322-1.021c0.213-0.29,0.439-0.517,0.68-0.681V9.802C15.3,9.55,15.026,9.212,14.78,8.791
		c-0.246-0.423-0.367-0.912-0.367-1.467c0-0.505,0.09-0.959,0.273-1.362c0.182-0.403,0.432-0.747,0.746-1.031
		s0.684-0.502,1.105-0.652C16.96,4.125,17.403,4.05,17.87,4.05c0.252,0,0.486,0.022,0.707,0.065c0.221,0.045,0.42,0.099,0.596,0.162
		h3.193v1.191h-1.891c0.215,0.215,0.395,0.486,0.539,0.813c0.145,0.328,0.217,0.688,0.217,1.079c0,0.491-0.088,0.937-0.264,1.334
		c-0.178,0.397-0.416,0.731-0.719,1.003c-0.301,0.271-0.658,0.482-1.066,0.634c-0.41,0.151-0.848,0.227-1.312,0.227
		c-0.227,0-0.461-0.028-0.699-0.085c-0.24-0.057-0.467-0.136-0.68-0.236c-0.164,0.139-0.303,0.293-0.416,0.463
		c-0.113,0.171-0.17,0.382-0.17,0.635c0,0.29,0.113,0.529,0.34,0.719s0.654,0.283,1.283,0.283h1.777c1.07,0,1.873,0.174,2.408,0.521
		c0.535,0.348,0.803,0.905,0.803,1.675c0,0.429-0.107,0.836-0.32,1.221c-0.215,0.385-0.523,0.722-0.926,1.012
		c-0.404,0.29-0.893,0.521-1.465,0.691C19.233,17.626,18.587,17.711,17.87,17.711z M18.097,16.633c0.439,0,0.84-0.054,1.199-0.161
		s0.664-0.246,0.916-0.416c0.252-0.171,0.447-0.369,0.586-0.597c0.139-0.227,0.207-0.46,0.207-0.699c0-0.43-0.158-0.726-0.473-0.89
		s-0.773-0.246-1.379-0.246h-1.586c-0.178,0-0.369-0.01-0.576-0.028c-0.209-0.019-0.412-0.061-0.615-0.123
		c-0.326,0.239-0.566,0.492-0.717,0.757s-0.227,0.53-0.227,0.795c0,0.492,0.236,0.883,0.709,1.173
		C16.612,16.488,17.265,16.633,18.097,16.633z M17.87,9.518c0.264,0,0.512-0.05,0.746-0.151c0.232-0.101,0.439-0.245,0.623-0.435
		c0.182-0.189,0.324-0.419,0.424-0.69c0.102-0.271,0.152-0.577,0.152-0.918c0-0.682-0.189-1.208-0.566-1.58
		c-0.379-0.372-0.838-0.559-1.379-0.559c-0.543,0-1.002,0.187-1.379,0.559c-0.379,0.372-0.568,0.898-0.568,1.58
		c0,0.341,0.051,0.646,0.152,0.918c0.1,0.271,0.242,0.501,0.424,0.69c0.184,0.189,0.391,0.334,0.625,0.435
		C17.356,9.468,17.604,9.518,17.87,9.518z"/>
	<path d="M24.669,13.473V4.278h1.285l0.133,1.664h0.057c0.314-0.579,0.695-1.04,1.143-1.381c0.447-0.34,0.936-0.511,1.465-0.511
		c0.363,0,0.691,0.063,0.98,0.188l-0.301,1.363c-0.152-0.051-0.291-0.088-0.416-0.114c-0.127-0.024-0.283-0.037-0.473-0.037
		c-0.391,0-0.797,0.157-1.219,0.473s-0.789,0.864-1.105,1.646v5.903H24.669z"/>
	<path d="M33.265,13.701c-0.768,0-1.406-0.228-1.918-0.682c-0.51-0.454-0.764-1.098-0.764-1.93c0-1.01,0.447-1.782,1.34-2.318
		c0.895-0.536,2.324-0.911,4.289-1.126c0-0.29-0.029-0.573-0.086-0.852c-0.057-0.277-0.154-0.522-0.291-0.737
		c-0.139-0.215-0.332-0.388-0.576-0.521c-0.246-0.133-0.559-0.199-0.936-0.199c-0.529,0-1.027,0.102-1.492,0.303
		c-0.467,0.202-0.883,0.43-1.248,0.682l-0.604-1.078c0.428-0.277,0.951-0.546,1.568-0.805c0.615-0.258,1.297-0.388,2.039-0.388
		c1.121,0,1.934,0.344,2.438,1.031s0.756,1.605,0.756,2.753v5.639h-1.285l-0.133-1.098h-0.057c-0.439,0.366-0.912,0.679-1.416,0.937
		C34.386,13.571,33.845,13.701,33.265,13.701z M33.718,12.452c0.441,0,0.857-0.104,1.248-0.312c0.389-0.208,0.805-0.514,1.246-0.918
		V8.667c-0.768,0.101-1.414,0.221-1.936,0.359c-0.523,0.139-0.945,0.303-1.266,0.491c-0.322,0.189-0.555,0.407-0.699,0.653
		c-0.146,0.246-0.219,0.514-0.219,0.804c0,0.53,0.158,0.908,0.473,1.136C32.88,12.337,33.265,12.452,33.718,12.452z"/>
	<path d="M41.048,17.352V4.278h1.285l0.133,1.059h0.057c0.416-0.353,0.871-0.655,1.369-0.908C44.39,4.176,44.909,4.05,45.45,4.05
		c0.592,0,1.115,0.11,1.568,0.331s0.83,0.536,1.133,0.946s0.531,0.901,0.689,1.476s0.236,1.221,0.236,1.939
		c0,0.782-0.107,1.479-0.32,2.091c-0.215,0.612-0.504,1.133-0.869,1.562s-0.787,0.754-1.266,0.974
		c-0.479,0.221-0.982,0.332-1.512,0.332c-0.428,0-0.854-0.095-1.275-0.284s-0.848-0.447-1.275-0.776l0.037,1.608v3.104H41.048z
		 M44.845,12.395c0.379,0,0.729-0.086,1.049-0.256c0.322-0.17,0.598-0.41,0.832-0.719c0.232-0.31,0.416-0.69,0.547-1.145
		c0.133-0.454,0.199-0.966,0.199-1.533c0-0.504-0.045-0.965-0.133-1.381c-0.088-0.417-0.23-0.772-0.424-1.069
		c-0.195-0.296-0.447-0.526-0.756-0.69s-0.678-0.246-1.105-0.246c-0.391,0-0.785,0.107-1.182,0.321
		c-0.396,0.215-0.82,0.523-1.275,0.928v4.824c0.416,0.354,0.82,0.603,1.209,0.748C44.196,12.322,44.544,12.395,44.845,12.395z"/>
	<path d="M51.911,13.473V0h1.549v3.672l-0.057,1.892c0.441-0.416,0.9-0.772,1.379-1.069c0.479-0.296,1.039-0.444,1.682-0.444
		c0.969,0,1.678,0.303,2.125,0.908s0.67,1.501,0.67,2.687v5.828H57.71v-5.62c0-0.87-0.139-1.497-0.416-1.882
		c-0.275-0.385-0.717-0.577-1.322-0.577c-0.479,0-0.9,0.12-1.266,0.359s-0.781,0.593-1.246,1.06v6.66H51.911z"/>
	<path d="M62.565,13.473V4.278h1.549v9.195H62.565z"/>
	<path d="M70.479,13.701c-0.49,0-0.904-0.076-1.236-0.228c-0.334-0.151-0.605-0.359-0.812-0.624
		c-0.209-0.266-0.355-0.587-0.445-0.966c-0.088-0.378-0.131-0.794-0.131-1.248v-5.09h-1.361V4.372l1.436-0.094l0.189-2.574h1.305
		v2.574h2.475v1.268h-2.475v5.108c0,0.567,0.104,1.006,0.311,1.315c0.209,0.309,0.576,0.463,1.105,0.463
		c0.164,0,0.34-0.024,0.529-0.075s0.359-0.107,0.51-0.171l0.303,1.174c-0.252,0.088-0.527,0.167-0.822,0.236
		C71.062,13.666,70.769,13.701,70.479,13.701z"/>
	<path d="M77.81,13.701c-0.617,0-1.193-0.111-1.729-0.332c-0.535-0.22-1.002-0.535-1.398-0.945s-0.709-0.911-0.936-1.505
		c-0.227-0.593-0.34-1.268-0.34-2.024s0.117-1.435,0.35-2.034c0.232-0.599,0.541-1.106,0.926-1.523
		c0.385-0.416,0.822-0.734,1.312-0.955c0.492-0.221,1.002-0.331,1.531-0.331c0.578,0,1.098,0.101,1.559,0.303
		c0.459,0.202,0.844,0.492,1.152,0.87c0.309,0.379,0.543,0.833,0.707,1.362c0.164,0.53,0.246,1.123,0.246,1.779
		c0,0.164-0.004,0.324-0.01,0.482c-0.006,0.157-0.021,0.293-0.047,0.406h-6.195c0.062,0.984,0.367,1.763,0.916,2.337
		c0.547,0.574,1.262,0.861,2.143,0.861c0.441,0,0.848-0.066,1.219-0.199c0.371-0.132,0.729-0.306,1.068-0.521l0.547,1.022
		c-0.402,0.252-0.85,0.473-1.34,0.662C78.999,13.606,78.438,13.701,77.81,13.701z M74.919,8.137h4.912
		c0-0.934-0.199-1.643-0.596-2.129c-0.396-0.485-0.953-0.729-1.672-0.729c-0.328,0-0.639,0.063-0.936,0.189
		c-0.295,0.126-0.562,0.312-0.803,0.559c-0.238,0.246-0.438,0.546-0.594,0.898C75.073,7.28,74.97,7.683,74.919,8.137z"/>
	<path fill-rule="evenodd" clip-rule="evenodd" d="M1.114,7.131c-0.416-0.54-0.73-0.943-1.117-1.441
		c2.082-0.317,3.945-0.602,6.25-0.954c0.389,0.507,0.717,0.933,1.094,1.421C5.321,6.473,3.562,6.75,1.114,7.131z"/>
	<path fill-rule="evenodd" clip-rule="evenodd" d="M1.36,9.47C0.944,8.93,0.632,8.526,0.243,8.03c2.08-0.317,3.943-0.602,6.25-0.955
		C6.882,7.582,7.21,8.007,7.587,8.496C5.569,8.812,3.81,9.088,1.36,9.47z"/>
	<path fill-rule="evenodd" clip-rule="evenodd" d="M1.618,11.889c-0.42-0.54-0.732-0.944-1.121-1.44
		c2.082-0.319,3.945-0.604,6.252-0.956C7.136,10,7.464,10.426,7.841,10.914C5.823,11.231,4.063,11.507,1.618,11.889z"/>
</g>
</svg>
