<?xml version="1.0" encoding="UTF-8"?>
<svg width="1200pt" height="1200pt" version="1.1" viewBox="0 0 1200 1200" xmlns="http://www.w3.org/2000/svg">
 <path d="m600 0c-330 0-600 270-600 600s270 600 600 600 600-270 600-600-270-600-600-600zm-330 1037.5c-130-97.5-215-252.5-217.5-425l77.5 7.5 60 52.5 27.5 22.5-27.5 85 82.5 127.5v52.5l10 30zm330 112.5c-82.5 0-160-17.5-230-50l10-60h37.5l7.5-52.5-10-30 42.5-15 37.5-50-25-52.5 40-30-112.5-82.5-5-45-50 5v-52.5l-57.5 12.5-7.5-47.5h-100l-20-60 47.5-47.5 50-22.5 22.5-80 47.5-5 42.5-60 47.5-32.5-30-65-60-20 92.5-22.5 75 35 35-40 85-25 25-77.5-47.5-27.5h10c100 0 195 27.5 277.5 75l-35 15-102.5 75 15 60-55 52.5-60 10 25 70-5 52.5-52.5 97.5v80l67.5 60 112.5-7.5v82.5l22.5 47.5-15 90 42.5 130 67.5-20 27.5-47.5 12.5-67.5 47.5-32.5v-110l62.5-122.5-17.5-25 102.5-77.5c2.5 22.5 5 45 5 67.5 5 297.5-242.5 545-545 545z" fill="#fff"/>
</svg>
