<?xml version="1.0" encoding="UTF-8"?>
<svg width="1200pt" height="1200pt" version="1.1" viewBox="0 0 1200 1200" xmlns="http://www.w3.org/2000/svg">
 <path d="m1115.1 1010.8-298.39-269.25-0.003906-0.003907c65.988-85.109 97.066-192.17 86.914-299.39-10.156-107.21-60.781-206.54-141.57-277.75s-185.68-108.96-293.33-105.57c-107.64 3.3906-209.95 47.668-286.1 123.82-76.152 76.156-120.43 178.46-123.82 286.11-3.3906 107.64 34.363 212.54 105.58 293.33 71.211 80.793 170.53 131.41 277.75 141.57 107.21 10.152 214.27-20.926 299.39-86.918l269.25 298.39c13.512 15.246 32.719 24.234 53.082 24.844 20.363 0.61328 40.074-7.207 54.477-21.613 14.406-14.402 22.227-34.113 21.613-54.477-0.60938-20.363-9.5977-39.57-24.84-53.082zm-981.61-528.03c0-92.625 36.797-181.46 102.29-246.95s154.33-102.29 246.95-102.29 181.46 36.797 246.95 102.29 102.29 154.33 102.29 246.95-36.793 181.46-102.29 246.95-154.33 102.29-246.95 102.29c-92.594-0.10547-181.36-36.934-246.84-102.41-65.473-65.473-102.3-154.24-102.41-246.84z" fill="#fff"/>
</svg>
