<?xml version="1.0" encoding="utf-8"?>
<!-- Generator: Adobe Illustrator 16.0.0, SVG Export Plug-In . SVG Version: 6.00 Build 0)  -->
<!DOCTYPE svg PUBLIC "-//W3C//DTD SVG 1.1//EN" "http://www.w3.org/Graphics/SVG/1.1/DTD/svg11.dtd">
<svg version="1.1" id="Ebene_1" xmlns="http://www.w3.org/2000/svg" xmlns:xlink="http://www.w3.org/1999/xlink" x="0px" y="0px"
	 width="2000px" height="600px" viewBox="0 0 2000 600" enable-background="new 0 0 2000 600" xml:space="preserve">
<g opacity="0.02">
	<g id="XMLID_14_">
		<g>
			<polygon fill="#12100B" points="411.042,522.788 411.042,471.401 462.429,497.083 			"/>
			<polygon fill="#12100B" points="462.429,548.471 513.793,522.788 513.793,574.152 			"/>
			<polygon fill="#12100B" points="822.071,625.54 822.071,574.152 873.435,599.834 			"/>
			<polygon fill="#12100B" points="822.071,574.152 873.458,548.471 873.458,599.834 873.435,599.834 			"/>
			<polygon fill="#12100B" points="565.181,497.083 616.544,471.401 616.544,522.788 			"/>
			<polygon fill="#12100B" points="873.458,599.858 924.822,574.152 924.822,625.54 			"/>
			<polygon fill="#12100B" points="51.4,342.968 51.4,291.58 102.764,317.262 			"/>
			<polygon fill="#12100B" points="51.4,497.083 51.4,445.719 102.764,471.401 			"/>
			<polygon fill="#12100B" points="51.4,599.858 51.4,548.471 102.764,574.152 			"/>
			<polygon fill="#12100B" points="102.764,522.788 154.151,497.083 154.151,548.471 			"/>
			<polygon fill="#12100B" points="102.764,368.649 154.151,342.968 154.151,394.331 			"/>
			<polygon fill="#12100B" points="51.4,497.083 102.764,471.401 102.764,522.788 			"/>
			<polygon fill="#12100B" points="154.151,497.083 205.539,471.401 205.539,522.788 			"/>
			<polygon fill="#12100B" points="205.539,574.152 205.539,522.788 256.903,548.471 			"/>
			<polygon fill="#12100B" points="102.764,317.262 154.151,291.58 154.151,342.968 			"/>
			<polygon fill="#12100B" points="154.151,548.471 154.151,497.083 205.539,522.788 			"/>
			<polygon fill="#12100B" points="154.151,548.471 205.539,522.788 205.539,574.152 			"/>
			<polygon fill="#12100B" points="51.4,548.471 51.4,497.083 102.764,522.788 			"/>
			<polygon fill="#12100B" points="0.012,368.649 0.012,317.262 51.4,342.968 			"/>
			<polygon fill="#12100B" points="0.012,522.788 0.012,471.401 51.4,497.083 			"/>
			<polygon fill="#12100B" points="0.012,574.152 51.4,548.471 51.4,599.858 			"/>
			<polygon fill="#12100B" points="0.012,317.262 51.4,291.58 51.4,342.968 			"/>
		</g>
		<g>
		</g>
	</g>
</g>
<g opacity="0.02">
	<g id="XMLID_1_">
		<g>
			<polygon fill="#12100B" points="1541.354,111.759 1592.742,86.054 1592.742,137.441 			"/>
			<polygon fill="#12100B" points="1541.354,265.898 1541.354,214.511 1592.742,240.192 			"/>
			<polygon fill="#12100B" points="1746.882,163.123 1746.882,111.759 1798.27,137.441 			"/>
			<polygon fill="#12100B" points="1387.24,497.083 1387.24,445.719 1438.604,471.401 			"/>
			<polygon fill="#12100B" points="1541.354,574.152 1592.742,548.471 1592.742,599.858 			"/>
			<polygon fill="#12100B" points="1541.354,574.152 1541.354,522.788 1592.742,548.471 			"/>
			<polygon fill="#12100B" points="1489.991,599.858 1489.991,548.471 1541.354,574.152 			"/>
			<polygon fill="#12100B" points="1592.742,497.083 1644.13,471.401 1644.13,522.788 			"/>
			<polygon fill="#12100B" points="1644.13,420.014 1644.13,368.649 1695.494,394.331 			"/>
			<polygon fill="#12100B" points="1130.35,522.788 1130.35,471.401 1181.713,497.083 			"/>
			<polygon fill="#12100B" points="1644.13,420.014 1695.494,394.331 1695.494,445.719 			"/>
			<polygon fill="#12100B" points="1746.882,420.014 1746.882,368.649 1798.27,394.331 			"/>
			<polygon fill="#12100B" points="1746.882,368.649 1798.27,342.968 1798.27,394.331 			"/>
			<polygon fill="#12100B" points="1798.27,394.331 1849.633,368.649 1849.633,420.014 			"/>
			<polygon fill="#12100B" points="1695.494,394.331 1695.494,342.968 1746.882,368.649 			"/>
			<polygon fill="#12100B" points="1438.604,522.788 1489.991,497.083 1489.991,548.471 			"/>
			<polygon fill="#12100B" points="1746.882,625.54 1746.882,574.152 1798.245,599.834 			"/>
			<polygon fill="#12100B" points="1798.27,599.858 1849.633,574.152 1849.633,625.54 			"/>
			<polygon fill="#12100B" points="1695.494,599.858 1695.494,548.471 1746.882,574.152 			"/>
			<polygon fill="#12100B" points="1541.354,522.788 1592.742,497.083 1592.742,548.471 			"/>
			<polygon fill="#12100B" points="1695.494,548.471 1746.882,522.788 1746.882,574.152 			"/>
			<polygon fill="#12100B" points="1489.991,548.471 1489.991,497.083 1541.354,522.788 			"/>
			<polygon fill="#12100B" points="1387.24,548.471 1438.604,522.788 1438.604,574.152 			"/>
		</g>
		<g>
		</g>
	</g>
</g>
<g opacity="0.02">
	<g id="XMLID_2_">
		<g>
			<polygon fill="#12100B" points="1849.633,317.262 1849.633,265.898 1901.021,291.58 			"/>
			<polygon fill="#12100B" points="1952.384,420.014 2003.771,394.331 2003.771,445.719 			"/>
			<polygon fill="#12100B" points="2003.771,497.083 2003.771,445.719 2055.159,471.401 			"/>
			<polygon fill="#12100B" points="2055.159,522.788 2055.159,471.401 2106.522,497.083 			"/>
			<polygon fill="#12100B" points="2055.159,471.401 2106.522,445.719 2106.522,497.083 			"/>
			<polygon fill="#12100B" points="2003.771,548.471 2003.771,497.083 2055.159,522.788 			"/>
			<polygon fill="#12100B" points="2003.771,291.58 2003.771,240.192 2055.135,265.898 			"/>
			<polygon fill="#12100B" points="1952.384,317.262 1952.384,265.898 2003.771,291.58 			"/>
			<polygon fill="#12100B" points="1952.384,265.898 1952.384,214.511 2003.771,240.192 			"/>
			<polygon fill="#12100B" points="1901.021,240.192 1952.384,214.511 1952.384,265.898 			"/>
			<polygon fill="#12100B" points="1901.021,291.58 1952.384,265.898 1952.384,317.262 			"/>
			<polygon fill="#12100B" points="1901.021,497.083 1952.384,471.401 1952.384,522.788 			"/>
			<polygon fill="#12100B" points="1952.384,214.511 1952.384,163.123 2003.771,188.829 			"/>
			<polygon fill="#12100B" points="1901.021,342.968 1901.021,291.58 1952.384,317.262 			"/>
			<polygon fill="#12100B" points="2003.771,445.719 2003.771,394.331 2055.159,420.014 			"/>
			<polygon fill="#12100B" points="1952.384,214.511 2003.771,188.829 2003.771,240.192 			"/>
			<polygon fill="#12100B" points="2003.771,497.083 2055.159,471.401 2055.159,522.788 			"/>
			<polygon fill="#12100B" points="2003.771,342.968 2003.771,291.58 2055.159,317.262 			"/>
			<polygon fill="#12100B" points="1901.021,240.192 1901.021,188.829 1952.384,214.511 			"/>
		</g>
		<g>
		</g>
	</g>
</g>
<g>
</g>
<g>
</g>
<g>
</g>
<g>
</g>
<g>
</g>
<g>
</g>
</svg>
