<?xml version="1.0" encoding="utf-8"?>
<!-- Generator: Adobe Illustrator 16.0.0, SVG Export Plug-In . SVG Version: 6.00 Build 0)  -->
<!DOCTYPE svg PUBLIC "-//W3C//DTD SVG 1.1//EN" "http://www.w3.org/Graphics/SVG/1.1/DTD/svg11.dtd">
<svg version="1.1" xmlns="http://www.w3.org/2000/svg" xmlns:xlink="http://www.w3.org/1999/xlink" x="0px" y="0px"
	 width="171.444px" height="291.452px" viewBox="0 0 171.444 291.452" enable-background="new 0 0 171.444 291.452"
	 xml:space="preserve">
<g id="Ebene_3">
	<g>
		<polygon fill="#B90541" points="1789.868,420.754 -17.147,420.754 -17.147,388.98 1789.746,-519.258 		"/>
	</g>
	<g>
		<g>
			<g id="XMLID_74_">
				<g>
					<polygon fill="#007279" points="171.444,188.583 171.444,222.879 137.148,205.723 					"/>
					<polygon fill="#007279" points="171.444,154.304 171.444,188.583 137.148,171.443 					"/>
					<polygon fill="#007279" points="171.444,120.009 171.444,154.304 137.148,137.148 					"/>
					<polygon fill="#007279" points="171.444,85.714 171.444,120.009 137.148,102.869 					"/>
					<polygon fill="#007279" points="171.444,51.435 171.444,85.714 137.148,68.574 					"/>
					<polygon fill="#007279" points="171.444,17.14 171.444,51.435 137.165,34.295 					"/>
					<polygon fill="#AD163F" points="171.444,17.14 137.165,34.295 137.148,34.278 137.148,0 					"/>
					<polygon fill="#007279" points="171.444,51.435 137.148,68.574 137.148,34.295 137.165,34.295 					"/>
					<polygon fill="#007279" points="171.444,85.714 137.148,102.869 137.148,68.574 					"/>
					<polygon fill="#007279" points="171.444,120.009 137.148,137.148 137.148,102.869 					"/>
					<polygon fill="#007279" points="171.444,154.304 137.148,171.443 137.148,137.148 					"/>
					<polygon fill="#007279" points="171.444,188.583 137.148,205.723 137.148,171.443 					"/>
					<polygon fill="#007279" points="171.444,222.879 137.165,240.018 137.148,240.018 137.148,205.723 					"/>
					<polygon fill="#E5004E" points="137.148,205.723 137.148,240.018 102.869,222.879 					"/>
					<polygon fill="#E5004E" points="137.148,171.443 137.148,205.723 102.869,188.583 					"/>
					<polygon fill="#007279" points="137.148,137.148 137.148,171.443 102.869,154.304 					"/>
					<polygon fill="#E5004E" points="137.148,102.869 137.148,137.148 102.869,120.009 					"/>
					<polygon fill="#E5004E" points="137.148,68.574 137.148,102.869 102.869,85.714 					"/>
					<polygon fill="#007279" points="137.148,34.295 137.148,68.574 102.869,51.435 137.133,34.295 					"/>
					<polygon fill="#AD163F" points="137.148,0 137.148,34.278 102.869,17.14 					"/>
					<polygon fill="#007279" points="137.148,68.574 102.869,85.714 102.869,51.435 					"/>
					<polygon fill="#E5004E" points="137.148,102.869 102.869,120.009 102.869,85.714 					"/>
					<polygon fill="#AD163F" points="137.148,137.148 102.869,154.288 102.869,120.009 					"/>
					<polygon fill="#007279" points="137.148,171.443 102.869,188.583 102.869,154.304 					"/>
					<polygon fill="#E5004E" points="137.148,205.723 102.869,222.879 102.869,188.583 					"/>
					<polygon fill="#AD163F" points="102.869,17.14 137.133,34.295 102.869,51.435 					"/>
					<polygon fill="#007279" points="102.869,154.304 102.869,188.583 68.574,171.443 					"/>
					<polygon fill="#AD163F" points="102.869,120.009 102.869,154.288 68.574,137.148 					"/>
					<polygon fill="#007279" points="102.869,51.435 102.869,85.714 68.574,68.574 					"/>
					<polygon fill="#AD163F" points="102.869,17.14 102.869,51.435 68.59,34.295 					"/>
					<polygon fill="#AD163F" points="102.869,51.435 68.574,68.574 68.574,34.295 68.59,34.295 					"/>
					<polygon fill="#007279" points="102.869,85.714 68.574,102.869 68.574,68.574 					"/>
					<polygon fill="#AD163F" points="102.869,154.304 68.574,171.443 68.574,137.148 					"/>
					<polygon fill="#007279" points="102.869,188.583 68.574,205.723 68.574,171.443 					"/>
					<polygon fill="#007279" points="68.574,240.018 68.574,274.312 34.294,257.157 					"/>
					<polygon fill="#007279" points="68.574,205.723 68.574,240.018 34.294,222.879 					"/>
					<polygon fill="#007279" points="68.574,171.443 68.574,205.723 34.294,188.583 					"/>
					<polygon fill="#007279" points="68.574,137.148 68.574,171.443 34.294,154.304 					"/>
					<polygon fill="#007279" points="68.574,102.869 68.574,137.148 34.294,120.009 					"/>
					<polygon fill="#007279" points="68.574,68.574 68.574,102.869 34.294,85.714 					"/>
					<polygon fill="#AD163F" points="68.574,34.295 68.574,68.574 34.294,51.435 68.559,34.295 					"/>
					<polygon fill="#AD163F" points="68.574,68.574 34.294,85.714 34.294,51.435 					"/>
					<polygon fill="#007279" points="68.574,102.869 34.294,120.009 34.294,85.714 					"/>
					<polygon fill="#007279" points="68.574,137.148 34.294,154.304 34.294,120.009 					"/>
					<polygon fill="#007279" points="68.574,171.443 34.294,188.583 34.294,154.304 					"/>
					<polygon fill="#007279" points="68.574,205.723 34.294,222.879 34.294,188.583 					"/>
					<polygon fill="#007279" points="68.574,240.018 34.294,257.157 34.294,222.879 					"/>
					<polygon fill="#007279" points="68.574,274.312 34.294,291.452 34.294,257.157 					"/>
					<polygon fill="#E5004E" points="34.294,257.157 34.294,291.452 0,274.312 					"/>
					<polygon fill="#E5004E" points="34.294,222.879 34.294,257.157 0,240.018 					"/>
					<polygon fill="#E5004E" points="34.294,188.583 34.294,222.879 0,205.723 					"/>
					<polygon fill="#E5004E" points="34.294,154.304 34.294,188.583 0,171.443 					"/>
					<polygon fill="#E5004E" points="34.294,120.009 34.294,154.304 0,137.148 					"/>
					<polygon fill="#E5004E" points="34.294,85.714 34.294,120.009 0,102.869 					"/>
					<polygon fill="#AD163F" points="34.294,51.435 34.294,85.714 0,68.574 					"/>
					<polygon fill="#E5004E" points="34.294,85.714 0,102.869 0,68.574 					"/>
					<polygon fill="#E5004E" points="34.294,120.009 0,137.148 0,102.869 					"/>
					<polygon fill="#E5004E" points="34.294,154.304 0,171.443 0,137.148 					"/>
					<polygon fill="#E5004E" points="34.294,188.583 0,205.723 0,171.443 					"/>
					<polygon fill="#E5004E" points="34.294,222.879 0,240.018 0,205.723 					"/>
					<polygon fill="#E5004E" points="34.294,257.157 0,274.312 0,240.018 					"/>
				</g>
			</g>
		</g>
		<g opacity="0.15">
			<g id="XMLID_73_">
				<g>
					<polygon fill="#007279" points="171.444,188.583 171.444,222.879 137.148,205.723 					"/>
					<polygon fill="#007279" points="171.444,154.304 171.444,188.583 137.148,171.443 					"/>
					<polygon fill="#007279" points="171.444,120.009 171.444,154.304 137.148,137.148 					"/>
					<polygon fill="#007279" points="171.444,85.714 171.444,120.009 137.148,102.869 					"/>
					<polygon fill="#007279" points="171.444,51.435 171.444,85.714 137.148,68.574 					"/>
					<polygon fill="#007279" points="171.444,17.14 171.444,51.435 137.165,34.295 					"/>
					<polygon fill="#007279" points="171.444,51.435 137.148,68.574 137.148,34.295 137.165,34.295 					"/>
					<polygon fill="#007279" points="171.444,85.714 137.148,102.869 137.148,68.574 					"/>
					<polygon fill="#007279" points="171.444,120.009 137.148,137.148 137.148,102.869 					"/>
					<polygon fill="#007279" points="171.444,154.304 137.148,171.443 137.148,137.148 					"/>
					<polygon fill="#007279" points="171.444,188.583 137.148,205.723 137.148,171.443 					"/>
					<polygon fill="#007279" points="171.444,222.879 137.165,240.018 137.148,240.018 137.148,205.723 					"/>
					<polygon fill="#007279" points="137.148,137.148 137.148,171.443 102.869,154.304 					"/>
					<polygon fill="#007279" points="137.148,34.295 137.148,68.574 102.869,51.435 137.133,34.295 					"/>
					<polygon fill="#007279" points="137.148,68.574 102.869,85.714 102.869,51.435 					"/>
					<polygon fill="#007279" points="137.148,171.443 102.869,188.583 102.869,154.304 					"/>
					<polygon fill="#007279" points="102.869,154.304 102.869,188.583 68.574,171.443 					"/>
					<polygon fill="#007279" points="102.869,51.435 102.869,85.714 68.574,68.574 					"/>
					<polygon fill="#007279" points="102.869,85.714 68.574,102.869 68.574,68.574 					"/>
					<polygon fill="#007279" points="102.869,188.583 68.574,205.723 68.574,171.443 					"/>
					<polygon fill="#007279" points="68.574,240.018 68.574,274.312 34.294,257.157 					"/>
					<polygon fill="#007279" points="68.574,205.723 68.574,240.018 34.294,222.879 					"/>
					<polygon fill="#007279" points="68.574,171.443 68.574,205.723 34.294,188.583 					"/>
					<polygon fill="#007279" points="68.574,137.148 68.574,171.443 34.294,154.304 					"/>
					<polygon fill="#007279" points="68.574,102.869 68.574,137.148 34.294,120.009 					"/>
					<polygon fill="#007279" points="68.574,68.574 68.574,102.869 34.294,85.714 					"/>
					<polygon fill="#007279" points="68.574,102.869 34.294,120.009 34.294,85.714 					"/>
					<polygon fill="#007279" points="68.574,137.148 34.294,154.304 34.294,120.009 					"/>
					<polygon fill="#007279" points="68.574,171.443 34.294,188.583 34.294,154.304 					"/>
					<polygon fill="#007279" points="68.574,205.723 34.294,222.879 34.294,188.583 					"/>
					<polygon fill="#007279" points="68.574,240.018 34.294,257.157 34.294,222.879 					"/>
					<polygon fill="#007279" points="68.574,274.312 34.294,291.452 34.294,257.157 					"/>
				</g>
			</g>
		</g>
	</g>
</g>
</svg>
