<?xml version="1.0" encoding="utf-8"?>
<!-- Generator: Adobe Illustrator 16.0.0, SVG Export Plug-In . SVG Version: 6.00 Build 0)  -->
<!DOCTYPE svg PUBLIC "-//W3C//DTD SVG 1.1//EN" "http://www.w3.org/Graphics/SVG/1.1/DTD/svg11.dtd">
<svg version="1.1" xmlns="http://www.w3.org/2000/svg" xmlns:xlink="http://www.w3.org/1999/xlink" x="0px" y="0px"
	 width="1714.211px" height="514.566px" viewBox="0 0 1714.211 514.566" enable-background="new 0 0 1714.211 514.566"
	 xml:space="preserve">
<g id="Ebene_1">
</g>
<g id="Ebene_2">
	<g>
		<g>
			<g opacity="0.04">
				<g id="XMLID_14_">
					<g>
						<polygon fill="#12100B" points="1234.402,308.828 1234.402,343.123 1200.106,325.968 						"/>
						<polygon fill="#12100B" points="1234.402,68.81 1200.106,85.949 1200.106,51.671 						"/>
						<polygon fill="#12100B" points="1234.402,171.68 1200.106,188.819 1200.106,154.54 1200.123,154.54 						"/>
						<polygon fill="#12100B" points="1234.402,240.254 1200.106,257.394 1200.106,223.114 						"/>
						<polygon fill="#12100B" points="1234.402,377.402 1200.106,394.558 1200.106,360.263 						"/>
						<polygon fill="#12100B" points="1234.402,445.992 1200.106,463.132 1200.106,428.837 						"/>
						<polygon fill="#12100B" points="1200.106,257.394 1200.106,291.688 1165.828,274.549 						"/>
						<polygon fill="#12100B" points="1200.106,120.245 1165.828,137.385 1165.828,103.105 						"/>
						<polygon fill="#12100B" points="1200.106,325.968 1165.828,343.123 1165.828,308.828 						"/>
						<polygon fill="#12100B" points="1200.106,360.263 1165.828,377.402 1165.828,343.123 						"/>
						<polygon fill="#12100B" points="1165.828,343.123 1165.828,377.402 1131.532,360.263 						"/>
						<polygon fill="#12100B" points="1165.828,308.828 1165.828,343.123 1131.532,325.968 						"/>
						<polygon fill="#12100B" points="1165.828,205.959 1165.828,240.254 1131.532,223.114 						"/>
						<polygon fill="#12100B" points="1165.828,171.68 1165.828,205.959 1131.532,188.819 						"/>
						<polygon fill="#12100B" points="1165.828,103.105 1165.828,137.385 1131.532,120.245 						"/>
						<polygon fill="#12100B" points="1165.828,137.385 1131.532,154.523 1131.532,120.245 						"/>
						<polygon fill="#12100B" points="1131.532,154.54 1131.532,188.819 1097.237,171.68 1131.517,154.54 						"/>
						<polygon fill="#12100B" points="1131.532,257.394 1097.237,274.549 1097.237,240.254 						"/>
						<polygon fill="#12100B" points="1131.532,325.968 1097.237,343.123 1097.237,308.828 						"/>
						<polygon fill="#12100B" points="1097.237,137.385 1097.237,171.68 1062.974,154.54 						"/>
						<polygon fill="#12100B" points="1097.237,171.68 1062.958,188.819 1062.958,154.54 1062.974,154.54 						"/>
						<polygon fill="#12100B" points="1097.237,308.828 1062.958,325.968 1062.958,291.688 						"/>
						<polygon fill="#12100B" points="1062.958,428.837 1062.958,463.132 1028.663,445.992 						"/>
						<polygon fill="#12100B" points="1062.958,188.819 1062.958,223.114 1028.663,205.959 						"/>
						<polygon fill="#12100B" points="1062.958,188.819 1028.663,205.959 1028.663,171.68 						"/>
						<polygon fill="#12100B" points="1062.958,223.114 1028.663,240.254 1028.663,205.959 						"/>
						<polygon fill="#12100B" points="1062.958,360.263 1028.663,377.402 1028.663,343.123 						"/>
						<polygon fill="#12100B" points="1028.663,240.254 1028.663,274.533 1005.811,263.106 994.384,257.394 						"/>
						<polygon fill="#12100B" points="1028.663,205.959 994.368,223.114 994.368,188.819 						"/>
						<polygon fill="#12100B" points="1028.663,274.549 994.384,291.688 994.384,257.394 1005.811,263.106 						"/>
						<polygon fill="#12100B" points="994.384,360.263 994.384,394.558 960.089,377.402 						"/>
						<polygon fill="#12100B" points="994.384,325.968 994.384,360.263 960.089,343.123 						"/>
						<polygon fill="#12100B" points="994.384,291.688 994.384,325.968 960.089,308.828 						"/>
						<polygon fill="#12100B" points="994.384,257.394 994.384,291.688 960.089,274.549 994.368,257.394 						"/>
						<polygon fill="#12100B" points="994.384,291.688 960.089,308.828 960.089,274.549 						"/>
						<polygon fill="#12100B" points="994.384,360.263 960.089,377.402 960.089,343.123 						"/>
						<polygon fill="#12100B" points="994.368,223.114 994.368,257.394 960.089,240.254 						"/>
						<polygon fill="#12100B" points="994.368,188.819 994.368,223.114 960.089,205.959 						"/>
						<polygon fill="#12100B" points="994.368,154.54 994.368,188.819 960.089,171.68 						"/>
						<polygon fill="#12100B" points="994.368,188.819 960.089,205.959 960.089,171.68 						"/>
						<polygon fill="#12100B" points="994.368,223.114 960.089,240.254 960.089,205.959 						"/>
						<polygon fill="#12100B" points="960.089,274.549 960.089,308.828 925.794,291.688 						"/>
						<polygon fill="#12100B" points="960.089,205.959 960.089,240.254 925.794,223.114 						"/>
						<polygon fill="#12100B" points="960.089,171.68 960.089,205.959 925.794,188.819 						"/>
						<polygon fill="#12100B" points="960.089,205.959 925.794,223.114 925.794,188.819 						"/>
						<polygon fill="#12100B" points="960.089,274.549 925.794,291.688 925.794,257.394 						"/>
						<polygon fill="#12100B" points="960.089,308.828 925.794,325.968 925.794,291.688 						"/>
						<polygon fill="#12100B" points="960.089,343.123 925.81,360.263 925.794,360.263 925.794,325.968 						"/>
						<polygon fill="#12100B" points="960.089,411.697 925.81,428.837 925.81,394.558 						"/>
						<polygon fill="#12100B" points="925.81,428.837 891.515,445.992 891.515,411.697 						"/>
						<polygon fill="#12100B" points="925.794,257.394 925.794,291.688 891.515,274.549 						"/>
						<polygon fill="#12100B" points="925.794,223.114 925.794,257.394 891.515,240.254 						"/>
						<polygon fill="#12100B" points="925.794,188.819 925.794,223.114 891.515,205.959 						"/>
						<polygon fill="#12100B" points="925.794,188.819 891.515,205.959 891.515,171.68 						"/>
						<polygon fill="#12100B" points="925.794,257.394 891.515,274.533 891.515,240.254 						"/>
						<polygon fill="#12100B" points="925.794,325.968 891.515,343.123 891.515,308.828 						"/>
						<polygon fill="#12100B" points="891.515,308.828 891.515,343.123 857.219,325.968 						"/>
						<polygon fill="#12100B" points="891.515,274.549 891.515,308.828 857.219,291.688 						"/>
						<polygon fill="#12100B" points="891.515,171.68 891.515,205.959 857.219,188.819 						"/>
						<polygon fill="#12100B" points="891.515,205.959 857.219,223.114 857.219,188.819 						"/>
						<polygon fill="#12100B" points="891.515,343.123 857.219,360.263 857.219,325.968 						"/>
						<polygon fill="#12100B" points="857.219,394.558 857.219,428.837 822.94,411.697 						"/>
						<polygon fill="#12100B" points="857.219,291.688 857.219,325.968 822.94,308.828 						"/>
						<polygon fill="#12100B" points="857.219,188.819 857.219,223.114 822.94,205.959 						"/>
						<polygon fill="#12100B" points="857.219,120.245 857.219,154.523 857.203,154.54 822.94,137.385 						"/>
						<polygon fill="#12100B" points="857.219,85.949 857.219,120.245 822.94,103.105 						"/>
						<polygon fill="#12100B" points="857.219,51.671 857.219,85.949 822.94,68.81 						"/>
						<polygon fill="#12100B" points="857.219,85.949 822.94,103.105 822.94,68.81 						"/>
						<polygon fill="#12100B" points="857.219,120.245 822.94,137.385 822.94,103.105 						"/>
						<polygon fill="#12100B" points="857.219,188.819 822.94,205.959 822.94,171.68 						"/>
						<polygon fill="#12100B" points="857.219,257.394 822.94,274.549 822.94,240.254 						"/>
						<polygon fill="#12100B" points="857.219,291.688 822.94,308.828 822.94,274.549 						"/>
						<polygon fill="#12100B" points="857.219,325.968 822.94,343.123 822.94,308.828 						"/>
						<polygon fill="#12100B" points="822.94,343.123 822.94,377.402 788.645,360.263 						"/>
						<polygon fill="#12100B" points="822.94,308.828 822.94,343.123 788.645,325.968 						"/>
						<polygon fill="#12100B" points="822.94,274.549 822.94,308.828 788.645,291.688 						"/>
						<polygon fill="#12100B" points="822.94,205.959 822.94,240.254 788.645,223.114 						"/>
						<polygon fill="#12100B" points="822.94,171.68 822.94,205.959 788.645,188.819 						"/>
						<polygon fill="#12100B" points="822.94,103.105 822.94,137.385 788.645,120.245 						"/>
						<polygon fill="#12100B" points="822.94,137.385 788.661,154.54 788.645,154.523 788.645,120.245 						"/>
						<polygon fill="#12100B" points="822.94,343.123 788.645,360.263 788.645,325.968 						"/>
						<polygon fill="#12100B" points="788.645,325.968 788.645,360.263 754.35,343.123 						"/>
						<polygon fill="#12100B" points="788.645,257.394 788.645,291.688 754.35,274.549 						"/>
						<polygon fill="#12100B" points="788.645,188.819 788.645,223.114 754.35,205.959 						"/>
						<polygon fill="#12100B" points="788.645,51.671 788.645,85.949 754.35,68.81 						"/>
						<polygon fill="#12100B" points="788.645,120.245 754.35,137.385 754.35,103.105 						"/>
						<polygon fill="#12100B" points="788.645,257.394 754.35,274.533 754.35,240.254 						"/>
						<polygon fill="#12100B" points="788.645,325.968 754.35,343.123 754.35,308.828 						"/>
						<polygon fill="#12100B" points="788.645,360.263 754.35,377.402 754.35,343.123 						"/>
						<polygon fill="#12100B" points="788.645,394.558 754.35,411.697 754.35,377.402 						"/>
						<polygon fill="#12100B" points="754.35,137.385 788.629,154.54 754.35,171.68 						"/>
						<polygon fill="#12100B" points="754.35,274.549 754.35,308.828 720.071,291.688 						"/>
						<polygon fill="#12100B" points="754.35,171.68 754.35,205.959 720.071,188.819 						"/>
						<polygon fill="#12100B" points="754.35,68.81 754.35,103.105 720.071,85.949 						"/>
						<polygon fill="#12100B" points="754.35,137.385 720.071,154.523 720.071,120.245 						"/>
						<polygon fill="#12100B" points="754.35,205.959 720.071,223.114 720.071,188.819 						"/>
						<polygon fill="#12100B" points="754.35,274.549 720.071,291.688 720.071,257.394 						"/>
						<polygon fill="#12100B" points="754.35,308.828 720.071,325.968 720.071,291.688 						"/>
						<polygon fill="#12100B" points="754.35,343.123 720.071,360.263 720.071,325.968 						"/>
						<polygon fill="#12100B" points="720.071,394.558 720.071,428.837 685.775,411.697 						"/>
						<polygon fill="#12100B" points="720.071,360.263 720.071,394.558 685.775,377.402 						"/>
						<polygon fill="#12100B" points="720.071,291.688 720.071,325.968 685.775,308.828 						"/>
						<polygon fill="#12100B" points="720.071,257.394 720.071,291.688 685.775,274.549 						"/>
						<polygon fill="#12100B" points="720.071,188.819 720.071,223.114 685.775,205.959 						"/>
						<polygon fill="#12100B" points="720.071,154.54 720.071,188.819 685.775,171.68 720.055,154.54 						"/>
						<polygon fill="#12100B" points="720.071,120.245 720.071,154.523 720.055,154.54 685.775,137.385 						"/>
						<polygon fill="#12100B" points="720.071,85.949 685.775,103.105 685.775,68.81 						"/>
						<polygon fill="#12100B" points="720.071,223.114 685.775,240.254 685.775,205.959 						"/>
						<polygon fill="#12100B" points="720.071,257.394 685.775,274.549 685.775,240.254 						"/>
						<polygon fill="#12100B" points="720.071,291.688 685.775,308.828 685.775,274.549 						"/>
						<polygon fill="#12100B" points="720.071,325.968 685.775,343.123 685.775,308.828 						"/>
						<polygon fill="#12100B" points="720.071,360.263 685.775,377.402 685.775,343.123 						"/>
						<polygon fill="#12100B" points="720.071,394.558 685.775,411.697 685.775,377.402 						"/>
						<polygon fill="#12100B" points="720.071,428.837 685.775,445.992 685.775,411.697 						"/>
						<polygon fill="#12100B" points="685.775,137.385 720.055,154.54 685.775,171.68 						"/>
						<polygon fill="#12100B" points="685.775,308.828 685.775,343.123 651.48,325.968 						"/>
						<polygon fill="#12100B" points="685.775,240.254 685.775,274.549 651.48,257.394 						"/>
						<polygon fill="#12100B" points="685.775,205.959 685.775,240.254 651.48,223.114 						"/>
						<polygon fill="#12100B" points="685.775,171.68 685.775,205.959 651.48,188.819 						"/>
						<polygon fill="#12100B" points="685.775,103.105 651.48,120.245 651.48,85.949 						"/>
						<polygon fill="#12100B" points="685.775,240.254 651.48,257.394 651.48,223.114 						"/>
						<polygon fill="#12100B" points="685.775,274.549 651.48,291.688 651.48,257.394 						"/>
						<polygon fill="#12100B" points="651.48,154.54 651.48,188.819 617.201,171.68 651.465,154.54 						"/>
						<polygon fill="#12100B" points="651.48,120.245 651.48,154.523 617.201,137.385 						"/>
						<polygon fill="#12100B" points="651.48,85.949 651.48,120.245 617.201,103.105 						"/>
						<polygon fill="#12100B" points="651.48,120.245 617.201,137.385 617.201,103.105 						"/>
						<polygon fill="#12100B" points="617.201,137.385 651.465,154.54 617.201,171.68 						"/>
					</g>
				</g>
			</g>
			<g opacity="0.04">
				<g id="XMLID_13_">
					<g>
						<polygon fill="#12100B" points="617.201,377.402 617.201,411.697 582.905,394.558 						"/>
						<polygon fill="#12100B" points="617.201,343.123 617.201,377.402 582.905,360.263 						"/>
						<polygon fill="#12100B" points="617.201,308.828 617.201,343.123 582.905,325.968 						"/>
						<polygon fill="#12100B" points="617.201,34.531 617.201,68.81 582.905,51.671 617.185,34.531 						"/>
						<polygon fill="#12100B" points="617.201,68.81 582.905,85.949 582.905,51.671 						"/>
						<polygon fill="#12100B" points="617.201,103.105 582.905,120.245 582.905,85.949 						"/>
						<polygon fill="#12100B" points="617.201,308.828 582.905,325.968 582.905,291.688 						"/>
						<polygon fill="#12100B" points="617.201,377.402 582.905,394.558 582.905,360.263 						"/>
						<polygon fill="#12100B" points="582.905,17.375 617.185,34.531 582.905,51.671 						"/>
						<polygon fill="#12100B" points="582.905,291.688 582.905,325.968 548.626,308.828 						"/>
						<polygon fill="#12100B" points="582.905,257.394 582.905,291.688 548.626,274.549 						"/>
						<polygon fill="#12100B" points="582.905,223.114 582.905,257.394 548.626,240.254 						"/>
						<polygon fill="#12100B" points="582.905,188.819 548.626,205.959 548.626,171.68 						"/>
						<polygon fill="#12100B" points="582.905,291.688 548.626,308.828 548.626,274.549 						"/>
						<polygon fill="#12100B" points="582.905,325.968 548.626,343.123 548.626,308.828 						"/>
						<polygon fill="#12100B" points="582.905,497.428 548.626,514.566 548.626,480.271 						"/>
						<polygon fill="#12100B" points="548.626,480.271 548.626,514.566 514.331,497.428 						"/>
						<polygon fill="#12100B" points="548.626,308.828 548.626,343.123 514.331,325.968 						"/>
						<polygon fill="#12100B" points="548.626,137.385 514.331,154.523 514.331,120.245 						"/>
						<polygon fill="#12100B" points="548.626,274.549 514.331,291.688 514.331,257.394 						"/>
						<polygon fill="#12100B" points="548.626,343.123 514.331,360.263 514.331,325.968 						"/>
						<polygon fill="#12100B" points="514.331,463.132 514.331,497.428 480.052,480.271 						"/>
						<polygon fill="#12100B" points="514.331,360.263 514.331,394.558 480.052,377.402 						"/>
						<polygon fill="#12100B" points="514.331,257.394 514.331,291.688 480.036,274.549 						"/>
						<polygon fill="#12100B" points="514.331,17.375 514.331,51.671 480.052,34.531 						"/>
						<polygon fill="#12100B" points="514.331,188.819 480.036,205.959 480.036,171.68 						"/>
						<polygon fill="#12100B" points="514.331,394.558 480.052,411.697 480.052,377.402 						"/>
						<polygon fill="#12100B" points="514.331,428.837 480.052,445.992 480.052,411.697 						"/>
						<polygon fill="#12100B" points="480.036,137.385 514.315,154.54 480.036,171.68 						"/>
						<polygon fill="#12100B" points="480.036,480.271 480.036,480.288 445.757,497.428 445.757,463.132 						"/>
						<polygon fill="#12100B" points="480.036,445.992 480.036,480.271 445.757,463.132 						"/>
						<polygon fill="#12100B" points="445.757,463.132 445.757,497.428 411.462,480.271 						"/>
						<polygon fill="#12100B" points="445.757,154.54 445.757,188.819 411.462,171.68 445.741,154.54 						"/>
						<polygon fill="#12100B" points="411.462,171.68 411.462,205.959 377.167,188.819 						"/>
						<polygon fill="#12100B" points="411.462,34.531 377.183,51.671 377.167,51.671 377.167,51.654 377.167,17.375 						"/>
						<polygon fill="#12100B" points="411.462,445.992 377.183,463.132 377.183,428.837 						"/>
						<polygon fill="#12100B" points="377.183,463.132 377.183,497.428 342.888,480.271 						"/>
						<polygon fill="#12100B" points="377.167,154.54 377.167,188.819 342.888,171.68 						"/>
						<polygon fill="#12100B" points="377.167,188.819 342.888,205.959 342.888,171.68 						"/>
						<polygon fill="#12100B" points="342.888,480.271 308.593,497.428 308.593,463.132 308.608,463.132 						"/>
						<polygon fill="#12100B" points="308.608,428.837 308.608,463.132 308.593,463.132 274.313,445.992 						"/>
						<polygon fill="#12100B" points="308.593,51.671 308.593,85.949 274.313,68.81 						"/>
						<polygon fill="#12100B" points="274.313,445.992 274.313,480.271 240.018,463.132 						"/>
						<polygon fill="#12100B" points="274.313,274.549 274.313,308.828 240.018,291.688 						"/>
						<polygon fill="#12100B" points="274.313,274.549 240.018,291.688 240.018,257.394 						"/>
						<polygon fill="#12100B" points="240.018,428.837 240.018,463.132 205.739,445.992 						"/>
						<polygon fill="#12100B" points="240.018,291.688 240.018,325.968 205.739,308.828 						"/>
						<polygon fill="#12100B" points="240.018,257.394 240.018,291.688 205.739,274.549 						"/>
						<polygon fill="#12100B" points="240.018,85.949 240.018,120.245 205.739,103.105 						"/>
						<polygon fill="#12100B" points="240.018,257.394 205.739,274.549 205.739,240.254 						"/>
						<polygon fill="#12100B" points="205.739,308.828 205.739,343.123 171.444,325.968 						"/>
						<polygon fill="#12100B" points="205.739,240.254 171.444,257.394 171.444,223.114 						"/>
						<polygon fill="#12100B" points="205.739,411.697 171.444,428.837 171.444,394.558 						"/>
						<polygon fill="#12100B" points="171.444,428.837 171.444,463.132 137.149,445.992 						"/>
						<polygon fill="#12100B" points="171.444,360.263 171.444,394.558 137.149,377.402 						"/>
						<polygon fill="#12100B" points="171.444,325.968 171.444,360.263 137.149,343.123 						"/>
						<polygon fill="#12100B" points="171.444,291.688 171.444,325.968 137.149,308.828 						"/>
						<polygon fill="#12100B" points="171.444,188.819 171.444,223.114 137.149,205.959 						"/>
						<polygon fill="#12100B" points="171.444,120.245 171.444,154.523 137.149,137.385 						"/>
						<polygon fill="#12100B" points="171.444,360.263 137.149,377.402 137.149,343.123 						"/>
						<polygon fill="#12100B" points="137.149,137.385 171.428,154.54 137.149,171.68 						"/>
						<polygon fill="#12100B" points="137.149,411.697 137.149,445.992 102.87,428.837 						"/>
						<polygon fill="#12100B" points="137.149,377.402 137.149,411.697 102.87,394.558 						"/>
						<polygon fill="#12100B" points="137.149,171.68 137.149,205.959 102.87,188.819 						"/>
						<polygon fill="#12100B" points="137.149,171.68 102.87,188.819 102.87,154.54 102.886,154.54 						"/>
						<polygon fill="#12100B" points="137.149,377.402 102.87,394.558 102.87,360.263 						"/>
						<polygon fill="#12100B" points="137.149,411.697 102.87,428.837 102.87,394.558 						"/>
					</g>
				</g>
			</g>
		</g>
	</g>
</g>
<g id="Ebene_5">
</g>
<g id="Ebene_4">
	<g opacity="0.04">
		<g id="XMLID_20_">
			<g>
				<polygon fill="#12100B" points="1714.211,308.592 1714.211,342.888 1679.916,325.731 				"/>
				<polygon fill="#12100B" points="1714.211,240.018 1714.211,274.313 1679.916,257.157 				"/>
				<polygon fill="#12100B" points="1714.211,171.443 1679.916,188.583 1679.916,154.304 1679.932,154.304 				"/>
				<polygon fill="#12100B" points="1714.211,342.888 1679.916,360.027 1679.916,325.731 				"/>
				<polygon fill="#12100B" points="1714.211,411.462 1679.916,428.602 1679.916,394.322 				"/>
				<polygon fill="#12100B" points="1679.916,462.896 1679.916,497.191 1645.637,480.036 				"/>
				<polygon fill="#12100B" points="1679.916,222.878 1679.916,257.157 1645.637,240.018 				"/>
				<polygon fill="#12100B" points="1645.637,377.166 1645.637,411.462 1611.341,394.322 				"/>
				<polygon fill="#12100B" points="1645.637,171.443 1645.637,205.723 1611.341,188.583 				"/>
				<polygon fill="#12100B" points="1577.046,171.443 1542.767,188.583 1542.767,154.304 1542.783,154.304 				"/>
				<polygon fill="#12100B" points="1577.046,240.018 1542.767,257.157 1542.767,222.878 				"/>
				<polygon fill="#12100B" points="1542.767,291.452 1542.767,325.731 1508.472,308.592 				"/>
				<polygon fill="#12100B" points="1542.767,188.583 1542.767,222.878 1508.472,205.723 				"/>
				<polygon fill="#12100B" points="1542.767,154.304 1542.767,188.583 1508.472,171.443 1542.751,154.304 				"/>
				<polygon fill="#12100B" points="1542.767,188.583 1508.472,205.723 1508.472,171.443 				"/>
				<polygon fill="#12100B" points="1542.767,257.157 1508.472,274.297 1508.472,240.018 				"/>
				<polygon fill="#12100B" points="1542.767,291.452 1508.472,308.592 1508.472,274.313 				"/>
				<polygon fill="#12100B" points="1542.767,325.731 1508.472,342.888 1508.472,308.592 				"/>
				<polygon fill="#12100B" points="1542.767,428.602 1508.472,445.757 1508.472,411.462 				"/>
				<polygon fill="#12100B" points="1508.472,240.018 1508.472,274.297 1485.619,262.871 1474.192,257.157 				"/>
				<polygon fill="#12100B" points="1508.472,205.723 1474.177,222.878 1474.177,188.583 				"/>
				<polygon fill="#12100B" points="1474.177,154.304 1474.177,188.583 1439.897,171.443 				"/>
				<polygon fill="#12100B" points="1439.897,411.462 1439.897,445.757 1405.618,428.602 				"/>
				<polygon fill="#12100B" points="1439.897,240.018 1439.897,274.313 1405.603,257.157 				"/>
				<polygon fill="#12100B" points="1439.897,205.723 1439.897,240.018 1405.603,222.878 				"/>
				<polygon fill="#12100B" points="1439.897,137.148 1439.897,171.443 1405.618,154.304 				"/>
				<polygon fill="#12100B" points="1439.897,240.018 1405.603,257.157 1405.603,222.878 				"/>
				<polygon fill="#12100B" points="1405.603,257.157 1405.603,291.452 1371.323,274.313 				"/>
				<polygon fill="#12100B" points="1405.603,17.14 1371.323,34.295 1371.323,0 				"/>
				<polygon fill="#12100B" points="1405.603,257.157 1371.323,274.297 1371.323,240.018 				"/>
				<polygon fill="#12100B" points="1371.323,137.148 1371.323,171.443 1337.044,154.304 				"/>
				<polygon fill="#12100B" points="1371.323,34.295 1371.323,68.574 1337.028,51.435 				"/>
				<polygon fill="#12100B" points="1371.323,0 1371.323,34.295 1337.028,17.14 				"/>
				<polygon fill="#12100B" points="1371.323,171.443 1337.028,188.583 1337.028,154.304 1337.044,154.304 				"/>
				<polygon fill="#12100B" points="1371.323,240.018 1337.028,257.157 1337.028,222.878 				"/>
				<polygon fill="#12100B" points="1371.323,308.592 1337.028,325.731 1337.028,291.452 				"/>
				<polygon fill="#12100B" points="1371.323,411.462 1337.028,428.602 1337.028,394.322 				"/>
				<polygon fill="#12100B" points="1337.028,360.027 1337.028,394.322 1302.749,377.166 				"/>
				<polygon fill="#12100B" points="1337.028,222.878 1337.028,257.157 1302.749,240.018 				"/>
				<polygon fill="#12100B" points="1337.028,120.009 1337.028,154.288 1337.012,154.304 1302.749,137.148 				"/>
				<polygon fill="#12100B" points="1337.028,257.157 1302.749,274.313 1302.749,240.018 				"/>
				<polygon fill="#12100B" points="1337.028,360.027 1302.749,377.166 1302.749,342.888 				"/>
				<polygon fill="#12100B" points="1302.749,68.574 1302.749,102.869 1268.454,85.714 				"/>
				<polygon fill="#12100B" points="1302.749,68.574 1268.454,85.714 1268.454,51.435 				"/>
				<polygon fill="#12100B" points="1302.749,137.148 1268.47,154.304 1268.454,154.288 1268.454,120.009 				"/>
				<polygon fill="#12100B" points="1268.454,120.009 1268.454,154.288 1234.159,137.148 				"/>
				<polygon fill="#12100B" points="1268.454,85.714 1268.454,120.009 1234.159,102.869 				"/>
				<polygon fill="#12100B" points="1268.454,120.009 1234.159,137.148 1234.159,102.869 				"/>
			</g>
		</g>
	</g>
</g>
<g id="Ebene_3">
</g>
</svg>
