<?xml version="1.0" encoding="utf-8"?>
<!-- Generator: Adobe Illustrator 18.0.0, SVG Export Plug-In . SVG Version: 6.00 Build 0)  -->
<!DOCTYPE svg PUBLIC "-//W3C//DTD SVG 1.1//EN" "http://www.w3.org/Graphics/SVG/1.1/DTD/svg11.dtd">
<svg version="1.1" id="Layer_1" xmlns="http://www.w3.org/2000/svg" xmlns:xlink="http://www.w3.org/1999/xlink" x="0px" y="0px"
	 viewBox="0 0 1037.7 337" style="enable-background:new 0 0 1037.7 337;" xml:space="preserve">
<rect x="0" y="47.1" style="fill:#BABCBC;" width="2.5" height="236.9"/>
<path style="fill:#000003;" d="M319.4,64.9c-1,0.5-1.8,0.9-2.7,1.3c-9.2,3.7-15.8,10.4-20.9,18.8c-3.6,6.1-6.5,12.5-9.1,19
	c-4.1,10.2-7.9,20.5-12.1,30.6c-4.4,10.7-9.6,21-16.1,30.6c-5.9,8.8-12.7,16.9-20.9,23.6c-8,6.5-16.8,11.5-26.8,14.1
	c-7.1,1.9-14.3,2.4-21.5,0.9c-5-1-9.6-2.9-13.7-6c-1.9-1.5-3.6-3.3-4.9-5.4c-2.4-3.9-2.7-7.9-1.1-12.1c0.7-1.7,1.6-3.2,3-4.5
	c7-6.3,10.7-14.3,11.6-23.6c1.2-11.9-2.1-22.7-8.4-32.7c-5.4-8.6-12.7-15.3-21.4-20.5c-3.4-2.1-7.1-3.4-10.9-4.2
	c-4.5-1-9-1.8-13.6-2.5c-6.1-0.9-12.3-0.9-18.5-0.6c-7.4,0.4-14.7,1.6-21.9,3.4c-7.1,1.8-14.1,4.1-20.8,7
	c-10.4,4.4-20.3,9.9-29.8,15.9c-9.1,5.9-17.8,12.3-26.7,18.6c-3.5,2.5-7,4.8-10.6,7.3c-0.4,0.3-0.5,0.1-1,0.4
	c-0.3-0.8,1.1-1.5,0.8-1.9c-1.6-2.1-0.8-3.6,1.2-4.3c7.6-2.6,13.3-8.9,19.9-13.4c9.3-6.3,18.7-12.4,28.6-17.7
	c8.7-4.6,17.6-8.6,27-11.7c5-1.6,10-3,15.1-4.1c11.4-2.4,22.9-3.2,34.5-2.1c6.5,0.6,12.9,1.8,19.1,3.8c7.5,2.5,14.2,6.4,20.1,11.7
	c5.7,5.2,10.6,11.1,14.2,18c3.6,6.7,5.9,13.9,6.6,21.5c1.1,12.1-1.7,23.2-9.3,33c-0.3,0.4-0.6,0.8-0.7,1.2c-2,7.1-0.8,13.2,7,17.7
	c4.8,2.8,10.1,3.7,15.5,3.6c7.3-0.1,14.2-2.1,20.8-5.2c6-2.8,11.4-6.5,16.4-10.9c7.3-6.4,13.4-14,18.7-22.1
	c5.9-9.1,10.7-18.8,14.7-29c3.2-8.3,6.2-16.6,9.2-24.9c2.5-6.9,5-13.8,8-20.5c2.6-5.6,5.6-11,9.7-15.7c3.3-3.9,7.2-7.1,11.8-9.3
	c2.8-1.3,5.5-2.7,8.3-4c0.4-0.2,0.9-0.4,1.4-0.6c0.3,1.3,0.1,2.5,0.2,3.7C319.4,62.4,319.4,63.6,319.4,64.9"/>
<path style="fill:#000003;" d="M319.4,48.7c-0.7,0.4-0.8,0.8-1.3,1c-3.9,2-7.8,4.1-11.8,6c-6.8,3.2-11.9,8.2-16,14.3
	c-3.1,4.6-5.4,9.7-7.5,14.8c-3.1,7.7-5.6,15.7-8.2,23.6c-3,9.3-6,18.5-9.8,27.5c-3.8,9-8.2,17.7-13.7,25.8
	c-5.5,8-11.7,15.3-19.4,21.3c-6.8,5.3-14.3,9.3-22.8,11c-4.8,1-9.6,1.1-14.4-0.1c-3.5-0.9-6.7-2.5-9-5.6c-1.9-2.5-2.5-5.5-2.4-8.6
	c0-0.6,0.4-1.2,0.7-1.7c3-5.4,5.2-11,6.4-17c1.9-10,1.1-19.8-2.2-29.4c-6.1-17.4-17.7-29.9-33.8-38.6c-4.4-2.4-9.1-3.4-13.9-4.2
	c-3.1-0.5-6.2-1.1-9.4-1.5c-6.1-0.7-12.2-1-18.4-0.6c-5.7,0.3-11.3,1-16.8,2c-9.4,1.8-18.5,4.5-27.4,8.1
	c-10.9,4.4-21.4,9.8-31.3,16.1c-8.7,5.6-17.3,11.4-26,17.1c-3.3,2.2-6.6,4.3-9.9,6.4c-0.2,0.1-0.4,0.2-0.8,0.4c0-1,0-1.8,0-2.6
	c0-0.5,0.1-1,0-1.4c-0.1-0.8,0.3-1.2,1-1.6c9-5.6,18-11.2,27-16.9c10-6.3,20.2-12.1,30.9-16.9c6.6-3,13.4-5.6,20.4-7.7
	c7.5-2.3,15.2-4,23-5c7.7-1,15.5-1.3,23.3-0.8c6.7,0.4,13.3,1.6,19.8,3.2c8.8,2.2,16.4,6.6,23.4,12.3c7.4,6.1,13.4,13.4,18,21.9
	c4.5,8.4,7.1,17.3,7.8,26.7c0.7,9-0.6,17.7-3.6,26.2c-0.4,1.1-0.5,2.2-0.2,3.4c1.3,5.8,5,9.2,11.3,10.1c4.9,0.7,9.6-0.2,14.2-1.9
	c7-2.6,13-6.8,18.4-11.8c6.5-6.1,11.8-13.1,16.4-20.7c6.7-11.2,11.5-23.3,15.4-35.7c2.7-8.6,5.3-17.3,7.9-26c2.2-7,4.5-14,7.8-20.5
	c2.3-4.5,4.9-8.7,8.3-12.4c2.9-3.2,6.3-5.8,10.1-7.7c2.9-1.5,5.8-2.9,8.7-4.4c0.5-0.2,0.3-0.3,0.9-0.1
	C313.5,47.1,316.9,47.9,319.4,48.7c0.2,0.1-0.5-0.2,0,0.1"/>
<path style="fill:#000003;" d="M319.4,275.1v7.4c-0.3,0.1-0.5,0.3-0.8,0.4c-10.1,3.2-19.9,7-29.7,10.8c-11.6,4.4-23.2,8.7-35,12.3
	c-10.8,3.3-21.7,6.2-32.6,8.8c-4.2,1-8.3,1.8-12.5,2.9c-9.3,2.3-18.5,4.5-27.7,7c-4.4,1.2-8.7,2.8-13,4.3c-4.6,1.7-9.2,3.6-13.8,5.4
	c-1.5,0.6-2.8,1.4-4.2,2.2c-0.7,0.4-1.4,0.4-2.2,0.2c-6.1-2.2-12.3-4.3-18.4-6.5c-10.7-3.9-21.5-7.7-32.1-11.9
	C78.4,311,59.2,304.7,40,298.1c-12.9-4.4-25.8-9.1-38.7-13.6c-0.4-0.1-0.7-0.3-1.1-0.5v-5.8c0.5,0.2,0.9,0.3,1.3,0.4
	c9.9,3.4,19.7,7,29.6,10.3c8.1,2.7,16.4,5.1,24.6,7.7c13.6,4.3,26.9,9.4,40.1,14.6c4.9,2,9.9,3.9,14.9,5.8
	c8.6,3.3,17.3,6.7,25.9,9.9c2.6,1,5.4,1.8,8,2.7c0.5,0.2,1,0.1,1.5-0.1c1.5-0.7,2.9-1.4,4.4-2.1c3.6-1.7,7.1-3.4,10.7-4.9
	c4.1-1.6,8.4-3,12.6-4.3c7.7-2.5,15.6-3.8,23.6-5.3c14.4-2.7,28.9-5.4,43-9.2c9.7-2.6,19.2-5.7,28.6-9.1c11.1-4,21.9-8.6,32.9-13.1
	c5.3-2.1,10.6-4.1,16-6.2C318.4,275.4,318.9,275.3,319.4,275.1"/>
<path style="fill:#000003;" d="M0.1,274.9v-5.7c0.5,0.1,0.9,0.2,1.3,0.3c6.1,1.9,12.2,4.1,18.4,5.7c6.9,1.9,13.9,3.4,20.9,4.9
	c12,2.6,23.8,5.7,35.1,10.4c7.8,3.2,15.5,6.4,23.2,9.7c11.8,5.1,23.5,10.1,35.6,14.5c0.3,0.1,0.7,0.2,0.9,0.4c1,0.5,1.8,0.2,2.7-0.3
	c3.9-2.1,7.9-4.2,11.9-6.2c4.8-2.4,10.1-3.4,15.3-4.2c5.9-0.9,11.9-1.5,17.9-2.1c12.9-1.2,25.7-2.3,38.4-4.6
	c9.2-1.7,18.2-3.8,27.1-6.5c16.5-5,32.4-11.6,48-19c7-3.3,14.1-6.5,21.2-9.7c0.4-0.2,0.9-0.3,1.4-0.5v7.1c-0.5,0.2-1,0.4-1.6,0.7
	c-8.8,3.7-17.6,7.4-26.4,11.1c-11.8,5.1-23.7,9.8-36,13.8c-12,3.9-24.2,7-36.7,9.1c-10.6,1.8-21.3,3.3-32,4.9
	c-9.2,1.4-18.4,2.9-27.2,6c-2.4,0.9-4.9,1.8-7.2,2.9c-3.1,1.5-6.1,3.3-9.1,5c-0.6,0.4-1.2,0.5-1.9,0.2c-4.3-1.6-8.6-3-12.9-4.6
	c-15.3-5.9-30.5-12-45.8-17.9c-11.7-4.6-23.7-8.3-35.9-11.4c-7.8-2-15.6-4.1-23.3-6.4c-7.5-2.2-15-4.8-22.5-7.3
	C0.8,275.2,0.5,275.1,0.1,274.9"/>
<path style="fill:#000003;" d="M319.4,73.4c0,2.5,0,4.6,0,6.8c0,0.6-0.3,0.9-0.8,1.2c-7,4-11.9,10-16.2,16.7
	c-4.2,6.6-7.5,13.7-10.8,20.8c-4,8.8-8,17.7-12.2,26.5c-6,12.5-13.2,24.4-22.1,35.1c-7.3,8.8-15.6,16.4-25.3,22.4
	c-8,4.9-16.6,8.4-25.9,9.9c-9.4,1.6-18.7,1.1-27.8-2.2c-7.8-2.8-14.5-7.3-19.4-14c-2.6-3.5-4.4-7.4-5-11.8c-0.5-3.7,0-7.3,2.2-10.4
	c0.5-0.6,1.1-1.3,1.7-1.7c2.2-1.6,4.4-3.3,6.7-4.7c5.9-3.6,9.4-8.9,10.8-15.6c1.4-6.6,0.7-13.2-1.3-19.6
	c-2.8-8.5-7.7-15.5-14.2-21.5c-2.5-2.3-5.2-4.4-8.1-6.3c-2.1-1.3-4.5-2.2-6.8-3c-6.4-2-12.9-3.3-19.5-4c-6.8-0.7-13.5-0.6-20.2,0.1
	c-5.7,0.6-11.4,1.7-16.9,3.2c-6.9,1.8-13.5,4.2-20,7c-10,4.4-19.4,9.8-28.5,15.9c-8.2,5.5-16.1,11.6-24,17.6
	c-4.7,3.5-9.5,6.9-14.2,10.3c-0.4,0.3-0.8,0.5-1.5,0.9c0-1.8,0.1-3.3,0-4.9c0-0.4,0.5-0.7,0.9-1c1.9-1.3,4-2.5,5.9-3.9
	c6.3-4.4,12.5-8.9,18.7-13.4c10.8-7.7,21.9-15,33.9-20.9c6.7-3.4,13.7-6.2,20.9-8.5c6-2,12.2-3.5,18.4-4.5c7-1.2,14.1-1.7,21.2-1.5
	c9.8,0.3,19.3,2.1,28.5,5.6c2.5,1,4.9,2.3,7.1,3.8c13,8.7,21.4,20.5,24.1,36c1.3,7.2,0.6,14.3-2.4,21c-2.2,4.7-5.4,8.6-9.9,11.3
	c-0.6,0.3-1.1,0.8-1.5,1.3c-0.8,0.9-1.6,1.9-2.3,2.9c-3.4,4.4-3.8,9.2-1.7,14.3c2,4.7,5.3,8.4,9.5,11.4c4.7,3.4,10,5.5,15.7,6.6
	c8.9,1.8,17.7,1.1,26.4-1.5c9.6-2.9,18.1-7.7,25.9-13.9c9.5-7.6,17.3-16.9,24-27c6.8-10.2,12.2-21.2,17-32.4
	c4-9.2,7.8-18.5,11.9-27.8c3-6.8,6.5-13.5,11-19.4c3.9-5.1,8.5-9.4,14.4-12.2C318.1,74,318.6,73.8,319.4,73.4"/>
<path style="fill:#000003;" d="M0.1,260c1,0.3,1.9,0.5,2.9,0.8c7.1,2.2,14.4,3.6,21.8,4.3c6.9,0.7,13.8,1.3,20.8,2
	c2.5,0.3,4.9,0.8,7.4,1.3c8.9,1.8,17.3,5.1,25.4,9.1c8.5,4.1,17,8.5,25.5,12.6c6.3,3.1,12.8,6,19.1,9c0.6,0.3,1.2,0.5,1.9,0
	c5.4-3.7,11.4-5.9,17.7-7.2c2.9-0.6,5.8-1.1,8.8-1.6c0.8-0.1,1.5-0.1,2.3-0.1c6.7,0.2,13.3,0.4,20,0.5c5.6,0.1,11.1,0.3,16.7,0.3
	c15.3-0.1,30.3-1.8,45.2-5.4c9.6-2.3,19-5.3,28.2-8.9c10.2-4,20.2-8.7,29.9-13.7c8-4.2,16-8.3,24-12.5c0.5-0.2,0.9-0.4,1.5-0.7v6.7
	c-2.5,1.2-4.9,2.3-7.4,3.5c-8.2,3.9-16.3,7.9-24.5,11.8c-9.8,4.7-19.9,8.8-30.2,12.3c-10.8,3.7-21.8,6.6-33.1,8.6
	c-8.2,1.5-16.4,2.6-24.7,3c-9.1,0.5-18.2,0.8-27.3,1.1c-5.5,0.2-11,0.4-16.5,1.1c-3.3,0.4-6.3,1.5-9.4,2.4
	c-4.2,1.3-8.2,3.1-12.1,5.3c-1,0.6-2.1,1.4-3.2,1.5c-1,0.1-2.2-0.6-3.2-1c-7-2.9-14-5.9-20.9-8.9c-7.5-3.3-15-6.7-22.5-10
	c-8.4-3.7-16.9-7-25.8-9.3c-5.4-1.4-11-2.4-16.5-3.3c-7.9-1.3-15.8-2.4-23.7-4.1c-6.1-1.3-12-3.2-18.1-4.9V260"/>
<path style="fill:#000003;" d="M0,180.6c0-2.1,0-3.9,0-5.8c0-0.3,0.4-0.7,0.7-0.9c3.6-2.7,7.4-5.3,10.9-8.2
	c5.6-4.6,11.2-9.4,16.7-14.1c7.9-6.7,16-13,24.7-18.6c9.3-6,19-10.9,29.6-14.3c7.4-2.4,14.9-4,22.7-4.4c9.3-0.5,18.4,0.5,27,4.4
	c3.6,1.6,6.9,3.8,9.5,6.8c1.5,1.7,2.7,3.6,3.2,5.9c0.8,3,0.2,5.7-1.4,8.3c-0.7,1.1-1.5,2.1-2.3,3.1c-0.3,0.4-0.5,0.8-0.4,1.3
	c0.5,2.7-0.1,5.3-1.2,7.7c-1.1,2.4-2.3,4.7-3.5,7.1c-2.2,4.3-4,8.8-4.8,13.7c-1.5,8.9,0.1,17.2,4.4,25c2.9,5.2,6.6,9.7,11.2,13.4
	c3.1,2.5,6.3,5.1,9.6,7.3c8.5,5.9,17.9,9.7,28.2,11.4c8,1.3,16,1.2,23.9,0c10.1-1.6,19.6-4.9,28.6-9.7c7.6-4,14.6-9,21.1-14.6
	c10.6-9.2,19.6-19.8,27.8-31.2c5.8-8.2,11.3-16.7,16.7-25.2c4.7-7.3,9.5-14.6,15.2-21.3c0.3-0.4,0.6-0.7,1.1-1.2
	c0.1,0.6,0.1,0.9,0.1,1.2c0,2.2,0,4.3,0,6.5c0,0.7-0.2,1.2-0.6,1.7c-5.3,6.1-9.8,12.8-14.4,19.4c-6.3,9.2-12.6,18.5-19.5,27.3
	c-8.7,11.1-18.3,21.3-29.6,29.9c-10.7,8.1-22.3,14.4-35.3,18.1c-8.4,2.4-17.1,3.6-25.9,3.3c-12.9-0.5-24.9-3.9-35.8-10.7
	c-2.8-1.8-5.5-3.9-8.3-5.8c-3.1-2-6-4.1-8.6-6.7c-7.8-7.5-12.9-16.4-14.5-27.1c-0.9-5.7-0.5-11.4,0.8-17c1-3.9,2.1-7.8,3.2-11.7
	c0.7-2.5,1.2-5.1,0.8-7.7c-0.1-0.4-0.1-0.8-0.2-1.1c-0.6-1.1-0.2-2,0.4-3c1-1.5,1.8-3.1,2.5-4.7c1.7-4.2,0.7-8-2.4-11.2
	c-1.7-1.8-3.8-3.2-6.1-4.3c-4.7-2.2-9.6-3.2-14.7-3.6c-10-0.7-19.7,1-29.2,4.1c-9.4,3.1-18.2,7.6-26.6,13
	c-8.1,5.2-15.6,11-22.8,17.3c-6.5,5.6-12.8,11.4-19.4,17c-3.5,3-7.1,5.7-10.7,8.5C1.9,179.4,1.1,179.9,0,180.6"/>
<path style="fill:#000003;" d="M0.1,257.5v-5.7c1,0.2,1.8,0.4,2.7,0.6c6.9,1.5,13.8,1.8,20.8,1.5c4.8-0.2,9.6-0.5,14.4-0.8
	c11.7-0.7,22.5,2.1,32.8,7.6c7.1,3.8,13.9,8,20.8,12.1c6.5,3.8,13.1,7.5,19.6,11.2c0.4,0.2,0.9,0.4,1.2,0.6c1.3-0.8,2.6-1.6,3.9-2.3
	c4.4-2.4,9.1-3.5,14.1-3.8c4.2-0.3,8.4-0.4,12.7-0.3c5.3,0.2,10.6,0.8,15.9,1.5c8.5,1.1,16.9,2.5,25.4,3c9,0.5,17.9,0.4,26.9-0.4
	c8.7-0.8,17.3-2.3,25.8-4.4c6.7-1.7,13.2-3.8,19.6-6.2c12.9-4.8,25.2-11,37.2-17.9c7.8-4.5,15.5-9.1,23.2-13.6
	c0.7-0.4,1.4-0.8,2.3-1.3c0.2,2.2,0.2,4.2,0.1,6.2c0,0.3-0.5,0.7-0.9,0.8c-2.4,1.3-4.9,2.7-7.3,4c-7.6,4.1-15.2,8.3-22.9,12.4
	c-10.5,5.5-21.2,10.3-32.3,14.3c-8.3,3-16.8,5.4-25.4,7.2c-13.9,2.9-27.9,4.1-42,3.9c-7.8-0.1-15.6-0.7-23.4-1.4
	c-4.4-0.4-8.7-0.9-13.1-0.8c-4.8,0-9.6,0.4-14.3,1.2c-4.8,0.8-9.4,2.1-13.6,4.4c-1.1,0.6-2.2,1.2-3.2,1.9c-0.8,0.6-1.5,0.7-2.5,0.2
	c-8.3-4.2-16.6-8.4-24.9-12.6c-7-3.5-13.9-7.1-20.9-10.6c-4.1-2-8.4-3.6-12.8-4.8c-4.4-1.3-8.8-2.2-13.4-2.5
	c-7.4-0.4-14.8-0.6-22.1-0.9c-7.9-0.4-15.7-1.5-23.2-3.8C0.7,257.7,0.4,257.6,0.1,257.5"/>
<path style="fill:#000003;" d="M111.1,153.6c0.7-2.8,1.4-5.4,1.9-8c0.2-1.1,0.4-2.3,0.4-3.4c0.1-4.9-2.1-8.3-6.6-10.2
	c-3.8-1.6-7.8-1.9-11.9-1.8c-8,0.3-15.5,2.6-22.8,5.7c-9.6,4.1-18.3,9.8-26.6,16.1c-7,5.4-13.5,11.3-20.1,17.3
	c-6.2,5.6-12.3,11.4-19.1,16.4c-1.8,1.3-3.7,2.5-5.5,3.7c-0.2,0.1-0.4,0.2-0.7,0.4v-6.2c2.3-1.6,4.7-3.2,6.9-4.9
	c6.2-4.7,12-9.8,17.9-15c7.3-6.5,14.7-12.8,22.6-18.5c9.2-6.7,18.9-12.4,29.6-16.4c8.3-3.1,16.8-5,25.7-4.9
	c4.2,0.1,8.4,0.5,12.2,2.2c2,0.9,4,2,5.6,3.4c2.3,1.9,3.2,4.6,3,7.6c-0.2,2.6-1,5-2,7.3c-0.5,1.1-1,2.1-1.5,3.3
	c2.7,3.1,2.8,7,2.6,10.8c0,1-0.1,1.9-0.2,2.9c-0.3,3.8-0.7,7.7-0.8,11.5c-0.2,6.6,0.8,13,3.1,19.2c2.7,7.4,6.9,13.8,12.5,19.3
	c3.1,3.1,6.5,5.7,10.1,8.1c3.9,2.6,7.7,5.2,11.7,7.5c7.7,4.4,15.9,7.3,24.7,8.7c9,1.5,17.9,1.4,26.9,0c7.4-1.2,14.5-3.3,21.4-6.1
	c7.4-3,14.3-6.9,20.9-11.5c12.4-8.6,23-19.1,32.6-30.7c6.4-7.8,12.4-16,18.3-24.2c4.7-6.4,9.5-12.7,14.3-19c0.3-0.4,0.6-0.7,1.1-1.2
	c0.1,0.5,0.1,0.8,0.1,1.2c0,2,0,4,0,6c0,0.7-0.2,1.2-0.6,1.7c-6.9,8.7-13.8,17.5-20.6,26.3c-7.9,10.1-16.1,19.8-25.5,28.5
	c-8.7,8.1-18.2,15.3-28.8,20.9c-9.3,5-19.1,8.7-29.5,10.7c-7.7,1.5-15.5,2-23.3,1.4c-15-1.1-28.6-6-40.9-14.8c-0.9-0.7-2-1.2-3-1.8
	c-11.1-6.6-19.7-15.5-25.2-27.3c-2.9-6.3-4.6-13-5.3-19.9c-0.4-4-0.7-8-1.2-12c-0.2-1.6-0.5-3.1-0.9-4.6
	C114,156.9,112.9,155,111.1,153.6"/>
<path style="fill:#000003;" d="M319.4,90.3c0,2.9,0,5.4,0,7.9c0,0.7-0.5,1-0.9,1.4c-1.7,1.7-3.5,3.4-5.1,5.2
	c-3.9,4.4-7.1,9.2-9.9,14.2c-4.2,7.5-8.2,15.1-12.2,22.6c-5.1,9.7-10.4,19.2-16.6,28.3c-6.2,9.2-13.1,17.8-21.2,25.4
	c-7.1,6.7-14.9,12.4-23.6,16.8c-8,4.1-16.5,6.8-25.4,7.9c-10.3,1.3-20.3,0.3-30-3.4c-9.5-3.6-17.3-9.5-23.3-17.7
	c-2.3-3.1-4.5-6.2-5.8-9.9c-2.5-7.4-1.8-14.4,2.9-20.7c0.6-0.8,1.3-1.4,2-2c2.9-2.5,6-5,8.8-7.6c1.8-1.7,3.4-3.6,5-5.6
	c2.3-3,3.1-6.6,3.2-10.3c0.2-5.3-1.1-10.2-3.4-14.9c-2.5-5.2-6.1-9.6-10.4-13.5c-2.1-1.9-4.5-3.3-7-4.4c-5-2.1-10-3.9-15.3-5
	c-7.1-1.4-14.3-1.9-21.6-1.5c-9.8,0.5-19.4,2.6-28.7,5.8c-7.7,2.6-15.1,6.1-22.3,10c-11.1,6.1-21.3,13.5-31.2,21.4
	c-5.6,4.5-11.1,9-16.7,13.5c-2.9,2.3-5.9,4.5-8.9,6.7c-0.5,0.4-1.8,0.2-1.8,1c0-1.1,0.1-1.5,0.1-2.2c0-1.1,0.1,1.1-0.1-2.5
	c0-0.9,1.6-1.8,2.5-2.4c5.7-4.2,11.4-8.5,17-12.8c7.1-5.4,14.2-11,21.7-16c8.5-5.7,17.3-10.8,26.6-15.1c6.7-3,13.6-5.5,20.7-7.4
	c9.5-2.5,19.2-3.8,29-3.5c10.5,0.2,20.6,2.3,30.2,6.5c3.3,1.5,6.2,3.6,9,5.9c6.3,5.4,10.9,12,13.5,19.9c2.1,6.4,2.8,12.8,0.8,19.4
	c-1.2,4.1-3.4,7.5-7,9.9c-2.8,1.9-5.5,3.9-8.1,6c-2.6,2.2-4.6,4.8-5.6,8.1c-1.1,3.5-1.4,7-0.6,10.6c0.7,3.4,2.2,6.4,4.1,9.3
	c2.5,3.8,5.5,7.2,9.1,10.1c6.8,5.4,14.5,8.6,22.9,10.1c8.9,1.6,17.8,1,26.5-1.3c11.8-3,22.2-8.8,31.7-16.4
	c9.7-7.7,17.7-17,24.7-27.2c5.9-8.5,11.1-17.4,15.7-26.6c4.9-9.7,9.7-19.4,14.6-29c2.5-4.9,5.4-9.6,8.7-14c2.8-3.8,6.1-7.3,9.8-10.2
	C318.2,91,318.7,90.8,319.4,90.3"/>
<path style="fill:#000003;" d="M318.9,225.9c0,2.1,0.1,4,0.1,5.9c0,0.4-0.5,0.8-0.8,1c-7.2,4.6-14.4,9.2-21.6,13.7
	c-8.7,5.4-17.6,10.5-26.9,14.9c-10.2,4.9-20.7,8.9-31.6,11.9c-8,2.2-16.1,3.7-24.4,4.6c-9.6,1.1-19.2,1.2-28.7,0.5
	c-8.3-0.6-16.5-1.9-24.6-3.5c-5.9-1.2-11.8-2.3-17.7-3.1c-6.1-0.8-12.3-1.2-18.5-0.8c-5.5,0.4-10.9,1.6-15.6,4.9
	c-0.1,0.1-0.3,0.1-0.6,0.3c-1.4-0.8-3-1.7-4.5-2.6c-7.5-4.7-14.9-9.5-22.3-14.2c-5.3-3.4-10.6-6.6-16.3-9.2
	c-7.7-3.6-15.8-4.8-24.3-3.5c-5.1,0.7-10.1,1.7-15.2,2.5c-5.6,0.9-11.1,1.4-16.8,1.1c-2.2-0.1-4.3-0.4-6.4-0.7
	c-0.7-0.1-1.3-0.2-2.1-0.4v-5.9c0.1,0,0.3-0.1,0.4-0.1c7.7,0.8,15.3,0,22.8-2.1c4.6-1.2,9.1-2.6,13.7-3.8c3.9-1,7.8-1.6,11.8-1.5
	c5.4,0.1,10.3,1.8,14.9,4.3c5.6,3,10.7,6.8,15.8,10.5c6.5,4.8,13,9.6,19.5,14.3c0.6,0.5,1.3,0.8,1.9,1.2c1.6-0.8,3-1.6,4.6-2.3
	c2.6-1.2,5.4-1.6,8.3-1.7c4.8-0.2,9.6,0.4,14.3,1.2c4.4,0.7,8.8,1.5,13.2,2.4c6.1,1.3,12.2,2.6,18.2,4c7.4,1.7,14.8,3.3,22.3,4.1
	c7.3,0.8,14.6,1.1,22,0.8c15.8-0.7,31.1-3.9,45.9-9.3c10.2-3.7,20-8.4,29.4-13.7c11.7-6.6,22.7-14.1,33.7-21.7
	c1.8-1.3,3.7-2.5,5.5-3.7C318.4,226.2,318.5,226.1,318.9,225.9"/>
<path style="fill:#000003;" d="M0,170.7c0-1.9,0-3.5,0-5c0-0.5,0.3-0.7,0.6-1.2c6.9-9,18-13.8,26.8-20.8
	c8.7-6.9,17.6-13.5,27.1-19.2c9.9-5.9,20.3-10.7,31.3-13.9c9.1-2.6,18.4-4.2,27.9-4.1c7.7,0.1,15.2,1.1,22.5,3.6
	c4.6,1.5,9,3.5,12.9,6.4c5,3.7,8.4,8.6,10.4,14.5c1,2.8,1.4,5.8,1.1,8.8c-0.2,1.8-0.8,3.5-1.7,5.2c-2.5,4.6-6.1,8.5-9.2,12.7
	c-1.1,1.4-2.4,2.6-3.6,3.9c-7.7,8.5-9.5,18.3-5.7,29c1.6,4.6,4.2,8.6,7.5,12.2c3.9,4.2,8.1,8,12.9,11.2c7.1,4.8,15,7.9,23.5,9.4
	c7,1.2,14,1.4,21.1,0.4c7.6-1,15-3.2,22-6.3c7.8-3.5,15-7.9,21.7-13.2c10.7-8.5,19.6-18.6,27.5-29.7c6.8-9.5,12.6-19.5,18.3-29.6
	c4.6-8.1,9.1-16.2,14.3-24c2.7-4.1,5.7-7.9,9.2-11.4c0.2-0.2,0.4-0.4,0.8-0.7c0.1,0.5,0.1,0.8,0.1,1.1c0,2.2,0,4.4,0,6.6
	c0,0.6-0.1,1.1-0.5,1.6c-6,6.7-10.9,14.2-15.6,21.9c-5,8.2-9.9,16.4-15.1,24.5c-6.1,9.6-12.8,18.7-20.4,27.1
	c-9.1,10-19.3,18.7-31.2,25.2c-8.8,4.8-18.1,8.2-28,9.8c-7.5,1.2-15,1.4-22.5,0.3c-12.3-1.9-23.4-6.7-32.8-14.9
	c-2.3-2-4.8-3.8-7-5.9c-5.9-5.7-9.9-12.6-11.4-20.7c-1.7-9.7,0.7-18.5,6.5-26.3c2-2.8,4.2-5.5,6.3-8.2c2.1-2.7,3.7-5.7,4.9-8.9
	c1.8-4.9,1.3-9.7-0.8-14.4c-1.7-3.8-4.7-6.4-8-8.6c-6.3-4.2-13.2-6.5-20.6-7.7c-10.3-1.6-20.5-0.9-30.6,1.3
	c-11.8,2.7-22.8,7.3-33.3,13.3c-10,5.7-19.3,12.4-28.1,19.8c-6.3,5.2-12.5,10.5-18.8,15.7c-3.6,2.9-7.3,5.6-11,8.4
	C1.2,170,0.7,170.2,0,170.7"/>
<path style="fill:#000003;" d="M97.2,167.4c-0.1-3.1-0.1-6.1-0.4-9c-0.1-1.8-0.4-3.6-0.9-5.4c-1.4-5.2-5-7.7-10.1-8.2
	c-4.2-0.4-8.3,0.4-12.3,1.7c-6.9,2.2-13.1,5.6-19.1,9.6c-8.3,5.6-15.8,12.2-23.1,19c-5.1,4.8-10.3,9.5-15.5,14.2
	c-4.6,4.1-9.4,7.8-14.8,10.6c-0.2,0.1-0.5,0.3-1,0.5c-0.1-2.3,0-4.4,0-6.6c0.9-0.5,1.7-1,2.5-1.5c4.7-2.9,9.1-6.4,13.3-10.1
	c6.9-6.1,13.7-12.3,20.6-18.4c7.7-6.8,15.8-13,24.7-18.1c7-4,14.3-7.2,22.2-8.8c3.9-0.8,7.8-1.1,11.7-0.4c2.7,0.5,5.2,1.4,7.1,3.4
	c1.8,1.9,2.6,4.2,2.8,6.8c0.3,3.2-0.2,6.4-0.6,9.6c-0.1,0.5-0.1,0.9-0.2,1.5c0.1,0.1,0.3,0.3,0.4,0.3c2.6,1.4,4.2,3.6,5.2,6.3
	c1.3,3.4,1.9,6.9,2.7,10.4c1.2,5.7,2.4,11.3,4.6,16.8c3.6,9.3,9.1,17.3,16.4,24c3.6,3.3,7.5,6.3,11.7,8.8c4.1,2.5,8.2,5.2,12.4,7.5
	c8.2,4.4,16.8,7.4,26,8.9c7.7,1.2,15.4,1.5,23.1,0.8c6.6-0.6,13.1-1.9,19.4-3.9c9.8-3,18.9-7.4,27.6-12.8c8.4-5.3,16-11.4,23.2-18.1
	c8-7.5,15.3-15.7,22.2-24.1c6-7.3,12-14.6,18-21.9c0.7-0.8,1.4-1.6,2.3-2.6c0,0.7,0.1,1.1,0.1,1.4c0,1-0.1,2,0,3
	c0.3,2.3-0.5,3.9-2.1,5.6c-5.5,6.1-10.9,12.4-16.3,18.6c-6.8,7.9-13.9,15.5-21.6,22.5c-9.8,9-20.5,16.9-32.3,23.1
	c-8.8,4.6-18.1,8.1-27.8,10.3c-7.5,1.7-15.1,2.5-22.7,2.3c-15.6-0.4-30.1-4.3-43.5-12.3c-4.2-2.5-8.5-4.9-12.6-7.5
	c-9.2-5.7-16.7-13.2-22.5-22.3c-3.8-5.8-6.5-12.2-9-18.6c-1.4-3.5-2.8-6.9-4.3-10.3c-0.8-1.8-2-3.4-3.5-4.7
	C100,168.6,98.7,167.8,97.2,167.4"/>
<path style="fill:#000003;" d="M95.4,256.1c-0.9-0.7-1.7-1.3-2.5-2c-6.2-5.1-12.3-10.1-18.5-15.2c-3.5-2.8-7.1-5.5-11.1-7.7
	c-7.4-4.1-15.1-4.5-22.9-1.7c-3.5,1.2-6.9,2.6-10.3,4.1c-5.6,2.3-11.1,4.7-17.1,5.9c-4.2,0.9-8.5,1.3-12.9,1v-6.2
	c1.7-0.2,3.4-0.3,5-0.6c4.6-0.7,9-1.9,13.2-3.9c4.8-2.3,9.5-4.8,14.2-7.3c3.5-1.8,7.1-3.6,10.9-4.9c6.3-2.1,12.3-1.6,18,1.7
	c3.9,2.2,7.2,5.1,10.4,8.1c5.3,5.1,10.5,10.2,15.7,15.2c0.7,0.7,1.5,1.4,2.3,2.1c0.2-0.1,0.4-0.1,0.5-0.2c3.9-2.4,8-2.6,12.4-1.9
	c4.5,0.7,8.8,2.2,13.1,3.7c7.9,2.8,15.8,5.7,23.7,8.4c6.9,2.3,13.9,4.6,21,6.6c8.6,2.5,17.2,4.5,26.2,5.4c12.9,1.2,25.6,0.6,38.2-2
	c8.5-1.7,16.7-4.2,24.8-7.4c12.8-5.1,24.7-11.7,36-19.4c9.7-6.5,18.9-13.7,28.1-20.8c1.5-1.1,3-2.3,4.5-3.4c0.1-0.1,0.3-0.2,0.6-0.3
	c0,1.3-0.1,2.4,0,3.5c0.3,2.2-0.7,3.5-2.5,4.8c-6.7,4.6-13.3,9.5-19.9,14.2c-10,7-20.4,13.4-31.4,18.9
	c-11.9,5.8-24.2,10.4-37.2,13.2c-12.1,2.6-24.4,3.6-36.8,3c-12-0.7-23.7-3-35.1-6.6c-4.8-1.5-9.8-2.5-14.6-3.7
	c-7-1.8-13.9-3.7-20.9-5.5c-2.7-0.7-5.4-1.2-8.2-1.7C106.5,252.5,100.8,252.6,95.4,256.1"/>
<path style="fill:#000003;" d="M0.1,210.5v-6.7c0.7-0.4,1.5-0.8,2.2-1.2c4.8-2.5,9.3-5.7,13.3-9.2c6-5.2,11.8-10.5,17.7-15.8
	c7-6.3,14.1-12.3,22.1-17.3c5.1-3.2,10.4-5.8,16.2-7.3c3.1-0.8,6.2-1,9.3-0.4c3.2,0.7,5.6,2.5,7.1,5.3c1.5,2.8,2.2,5.8,2.7,8.9
	c0.3,2,0.6,4.1,0.9,6.1c0.1,0.4,0.1,0.8,0.2,1.3c5.1,0.6,8.1,3.9,10.4,8c2.3,4.1,4.5,8.3,6.6,12.4c5.3,10.1,12.1,19.1,20.9,26.5
	c3.1,2.6,6.3,4.9,9.7,6.9c5.3,3.1,10.5,6.2,15.9,9.1c7.9,4.3,16.3,7.3,25.1,9c9,1.7,18,2.2,27.1,1.3c4.5-0.4,9-1.1,13.5-2.1
	c6.2-1.4,12.3-3.4,18.2-5.8c14.5-6,27.4-14.6,39.3-24.7c9.3-8,17.8-16.8,26.1-25.8c4.4-4.8,8.9-9.6,13.3-14.4
	c0.4-0.4,0.6-0.9,0.9-1.3c0.1,0.1,0.3,0.2,0.4,0.2c0.1,0.2,0.2,0.5,0.2,0.7c0,1.8,0,3.6,0,5.3c0,0.6-0.2,1.1-0.6,1.5
	c-8.5,8.6-17,17.2-25.6,25.7c-7.2,7.1-15,13.6-23.2,19.5c-9.1,6.5-18.7,12-29.1,16.2c-8,3.3-16.2,5.7-24.7,7.1
	c-8.2,1.3-16.4,1.8-24.7,1.1c-14.3-1.1-27.8-5.1-40.2-12.3c-3.3-1.9-6.7-3.7-10.1-5.4c-10.2-5.3-19-12.5-26.5-21.2
	c-3.9-4.5-7.3-9.4-10.9-14.1c-1.8-2.5-3.7-4.9-5.7-7.2c-0.9-1-2-1.9-3.1-2.7c-1.7-1.3-3.7-2.1-5.9-2.1c-0.9,0-1.2-0.4-1.5-1.2
	c-0.8-3.1-1.7-6.2-2.7-9.2c-0.8-2.2-1.7-4.4-2.8-6.4c-2.8-4.8-7.1-6.5-12.4-5.9c-2.3,0.2-4.4,0.8-6.5,1.6c-5.1,1.9-9.8,4.7-14.2,7.9
	c-7.2,5.1-13.7,11.1-20.2,17.1c-5.1,4.7-10.3,9.5-15.9,13.7c-3.7,2.7-7.6,5.2-11.9,7C0.7,210.3,0.5,210.4,0.1,210.5"/>
<path style="fill:#000003;" d="M88.8,233.5c-2.7-3-5.2-6-7.8-8.8c-3.1-3.4-6.1-6.7-9.3-10c-2.2-2.2-4.7-4.1-7.5-5.6
	c-4.3-2.3-8.8-2.6-13.4-1.4c-4.1,1.1-7.8,3-11.3,5.2c-5.8,3.6-11.5,7.4-17.4,10.9c-6,3.6-12.4,6.2-19.4,7.4
	c-0.8,0.1-1.6,0.2-2.4,0.3c-0.2-0.5-0.2-1.8-0.2-3.1c0-0.2,0-0.3,0-0.5c0-1.1,0-2.3,0.1-2.9c2.3-0.7,4.5-1.2,6.7-2
	c5-1.7,9.6-4.1,13.9-7.1c5.4-3.8,10.8-7.7,16.2-11.5c4-2.8,8-5.4,12.5-7.3c2.3-0.9,4.6-1.6,7.1-1.8c4.9-0.4,9.1,1.5,12.5,4.8
	c2.1,2,4.1,4.2,5.8,6.6c3.4,4.4,6.5,9,9.8,13.5c0.3,0.5,0.7,0.9,1.1,1.4c0.3,0,0.5,0,0.7-0.1c3.1-1.3,6.3-1.1,9.4-0.2
	c2.9,0.9,5.5,2.1,8.1,3.7c4.6,2.7,9.1,5.5,13.7,8.3c6.7,4,13.6,7.7,20.8,10.8c6.8,3,13.4,6.2,20.2,9c9.4,3.9,19.3,6.1,29.4,7.1
	c7,0.7,14,0.8,21,0.2c10.9-0.9,21.5-3.3,31.8-7c9.3-3.3,18.2-7.6,26.7-12.7c7.5-4.5,14.7-9.4,21.6-14.8c9.8-7.6,19-15.8,28.4-23.9
	c0.5-0.4,0.9-0.8,1.6-1.3c0.1,0.5,0.1,0.8,0.1,1.1c0,1.6-0.1,3.2-0.1,4.8c0,0.7-0.3,1.1-0.8,1.6c-9.8,7.9-19.4,16-29.6,23.4
	c-10.1,7.3-20.6,13.9-31.9,19.2c-10.6,5-21.6,8.8-33.2,11.1c-10.3,2.1-20.6,2.8-31.1,2.2c-13.7-0.8-26.9-3.9-39.6-9.2
	c-5.1-2.1-10.1-4.4-15.2-6.6c-6.5-2.8-13-5.6-19.4-8.4c-4.4-1.9-8.7-4-13.1-5.8c-2-0.8-4.1-1.4-6.2-1.8
	C95.7,231.5,92.2,231.8,88.8,233.5"/>
<path style="fill:#000003;" d="M84.6,208.5c-0.2-0.4-0.5-0.8-0.8-1.3c-2.5-4.3-5-8.7-7.6-12.9c-1.1-1.8-2.5-3.5-3.9-5.1
	c-4.3-4.8-9.7-5.9-15.7-4.1c-4.8,1.4-9,4.1-13,6.9c-5.8,4-11,8.6-16.4,13.1c-4.2,3.5-8.4,6.8-13,9.7c-4.1,2.6-8.5,4.7-13.2,6
	c-0.2,0.1-0.5,0.1-0.8,0.2c-0.2-1.1-0.1-2.2-0.1-3.3c0-1.1,0-2.2,0-3.4c1.3-0.5,2.5-1,3.7-1.5c5.6-2.5,10.7-5.8,15.4-9.7
	c5.5-4.5,10.8-9.2,16.2-13.8c4.8-4.1,9.7-8,15.1-11.2c3.7-2.2,7.6-4.1,11.9-5c6.3-1.2,11,0.8,14.6,6.1c2.4,3.5,4,7.4,5.6,11.3
	c0.8,1.9,1.6,3.9,2.4,5.9c0.3,0,0.5,0,0.6,0c3.8-0.6,7,0.7,9.9,2.9c3,2.2,5.6,4.9,8.2,7.7c5.3,5.7,10.7,11.4,16.7,16.4
	c5.4,4.5,11.1,8.4,17.3,11.6c4,2.1,8,4.3,12,6.4c9.8,5,19.9,9,30.8,11c8.6,1.6,17.2,2.1,25.9,1.5c14.1-1,27.6-4.6,40.5-10.4
	c8.7-3.9,16.9-8.7,24.7-14.1c8.6-6,16.7-12.6,24.4-19.7c7.4-6.9,14.7-13.9,22-20.9c0.3-0.3,0.7-0.6,1.3-1.2c0,1.7-0.1,3.1,0,4.4
	c0.2,1.8-0.5,3-1.9,4.1c-6.1,5.3-12,10.8-18,16.1c-8.5,7.6-17.4,14.7-27,21.1c-10,6.6-20.5,12.2-31.8,16.4c-9.4,3.5-19.1,5.8-29,6.9
	c-9.5,1-19,0.9-28.4-0.6c-11.2-1.7-21.8-5.2-31.9-10.3c-4.6-2.3-9.3-4.6-13.9-6.9c-8.6-4.1-16.5-9.3-23.9-15.2
	c-4.7-3.7-9.3-7.5-14-11.1c-2.2-1.7-4.6-3-7.2-4c-2.2-0.8-4.4-1-6.7-0.6c-0.3,0-0.6,0.1-0.8,0.1C85,208.6,84.9,208.5,84.6,208.5"/>
<path style="fill:#000003;" d="M0.5,129.4c0-1.7,0-3.1,0-4.6c0-0.3,0.5-0.7,0.8-0.9c5.1-3,10.2-5.9,15.3-8.9
	c8.1-4.9,16.2-9.9,24.6-14.3c5.5-2.9,11.1-5.6,16.8-8.2c9-4.1,18.4-7.3,28.1-9.8c9.3-2.3,18.8-3.7,28.4-4.1c5-0.2,10,0,14.9,0.4
	c6.1,0.5,12.1,1.4,18,3c7,1.9,13.6,5,19.6,9.1c6.8,4.6,12.9,10.1,18.1,16.5c7.4,9.2,12.6,19.5,15.6,31c2.2,8.7,2.9,17.6,2.8,26.5
	c0,1.1,0.3,1.9,1,2.7c2.8,3.3,6.4,4.3,10.5,3.8c3.9-0.5,7.4-2.2,10.7-4.4c6.3-4.1,11.2-9.6,15.4-15.7c4.6-6.6,8.2-13.7,11.2-21.2
	c3.8-9.4,6.7-19.2,9.1-29c1.9-7.4,3.6-14.8,5.6-22.2c2-7.6,4.5-15.1,8.2-22c5.1-1.4,8.3-3.2,10.8-6c2.5-2.7,13.4-4.6,9.4-7.4
	c-3.5,2.2,4.7,1.7,0.6,0.3c2.2,0.7,1.7,2.6,4.1,0.4c0.3,0.1,1.2,1.9,1.7,2.1c-0.8,0.4-1.3,0.1-1.9-0.3c-0.5-0.3-1-0.6-1.7-0.3
	c-4.9,2.6-10.9,5.3-14.2,9.7c-4,5.4-6.8,11.4-9.1,17.7c-2.8,7.4-4.7,15.1-6.8,22.7c-2.7,9.8-5.3,19.7-8.7,29.4
	c-3.1,8.7-6.8,17.2-11.6,25.2c-4.8,8.1-10.6,15.4-17.9,21.4c-3.9,3.2-8.1,5.8-12.8,7.5c-3.8,1.4-7.8,2.1-11.9,1.3
	c-3.3-0.7-5.9-2.5-7.6-5.4c-0.4-0.7-0.6-1.5-0.4-2.3c0.8-4.9,1.5-9.8,1.6-14.7c0.4-13.2-2.4-25.7-8.6-37.3
	c-7.8-14.5-19.1-25.4-33.8-32.9c-5.7-2.9-11.7-4.5-18-5.3c-5.8-0.8-11.5-1.5-17.3-1.5c-6.8-0.1-13.5,0.3-20.2,1.3
	C92.2,84,83.5,86.2,75.1,89C66.4,92,58,95.6,49.8,99.8c-10.9,5.6-21.3,12.1-31.7,18.7c-5.3,3.4-10.7,6.7-16,10
	C1.7,128.8,1.2,129.1,0.5,129.4"/>
<path style="fill:#000003;" d="M264,73.9c-1.9,8.2-5.3,15.3-7.2,23.5c-2.2,9.8-4.7,19.5-8.4,28.8c-3.3,8.4-7.3,16.4-13,23.4
	c-3,3.8-6.5,7.2-10.6,9.8c-2.3,1.4-4.8,2.5-7.5,2.8c-2.3,0.3-4.5-0.1-6.5-1.2c-1-0.5-1.4-1.2-1.6-2.3c-0.9-5.2-1.7-10.4-2.9-15.5
	c-2.7-11.4-7.3-22-14.1-31.6c-9.9-14-22.7-24.3-38.5-30.6c-2.6-1-5.4-1.6-8.2-2.2c-10.2-2.2-20.5-3.1-30.9-2.6
	c-9.7,0.4-19.2,1.9-28.6,4.2c-9.3,2.3-18.4,5.5-27.2,9.2c-9.9,4.2-19.3,9.2-28.6,14.5c-7.9,4.6-15.8,9.3-23.7,13.9
	c-1.9,1.1-3.8,2.1-6,3.3c0-1.7-0.1-3.2,0-4.6c0-0.3,0.6-0.7,1-0.9c2.2-1.2,4.4-2.2,6.5-3.4c7.9-4.4,15.8-8.8,23.6-13.1
	c8.5-4.7,17.3-9,26.2-12.8c8.5-3.6,17.2-6.5,26.1-8.8c6.8-1.7,13.7-3,20.6-3.8c8.6-0.9,17.1-1.2,25.7-0.5c5.6,0.5,11.2,1.3,16.6,2.5
	c6.1,1.4,11.9,3.7,17.4,6.7c9.3,5,17.5,11.5,24.5,19.3c6.2,6.9,11.3,14.6,15.4,23c3.5,7.2,6.1,14.8,8.3,22.5
	c0.4,1.5,1.3,2.2,2.6,2.6c3,0.9,5.9,0.4,8.7-0.9c2.6-1.3,4.8-3.1,6.8-5.2c4.4-4.5,7.6-9.7,10.3-15.3c3.3-6.7,5.6-13.7,7.6-20.8
	c2.8-9.8,12.8-23,14.8-32.9c4-5.7,11.3-10.2,14.2-18.1c0.6-1.6,2.4-1.4,4.1-1.2c1.7,0.2,3.5,0.4,4.4-1.1c0.9-1.5,1-1,1.2-0.4
	c0.2,0.5,0.5,1,1.7-0.2c10.7,8.6,8.6,3.9,5.7-0.7c-1.7-2.8-3.8-5.6-3.4-5.5c2.2,0.6,5.5-1.6,4-3.7L264,73.9"/>
<path style="fill:#000003;" d="M283.9,40.3c-0.7,0.9-26.1,9.9-40,52.2c-14.2,43.2-18.3,43.7-21.5,45.4c-1.7,0.9-3.5,1.4-5.5,1.3
	c-0.9,0-1.5-0.4-2-1.3c-2.7-5.3-5.4-10.7-8.4-15.9c-5.1-9.1-11.3-17.4-18.7-24.8c-10.2-10.2-22-17.8-35.5-22.6c-2.9-1-6-1.6-9-2.1
	c-9.8-1.9-19.8-2.4-29.8-2c-9,0.4-17.9,1.7-26.8,3.8c-10,2.3-19.7,5.5-29.1,9.5C49,87.3,40.6,91.5,32.3,96
	c-9.9,5.5-19.8,11-29.7,16.4c-0.7,0.4-1.3,0.6-2.2,1c0-1.6-0.1-3-0.1-4.3c0-0.6,0.3-0.8,0.8-1.1c1.2-0.5,2.3-1.1,3.5-1.6
	c7.7-4,15.4-8,23-12c8.6-4.5,17.3-8.8,26.2-12.6c10-4.2,20.2-7.7,30.8-10.3c7.6-1.8,15.3-3.1,23-3.8c9-0.8,17.9-0.8,26.9,0.1
	c6.9,0.7,13.6,1.9,20.2,4.1c4.3,1.5,8.5,3.4,12.5,5.6c12.2,6.4,22.6,15.2,31.6,25.6c5.4,6.3,17.2,21.3,18.1,23.2
	c0.9,1.9,3.5,3,7.1-3c2.3-3.7,11.4-19.8,15.9-39.1c6.8-28.9,21.5-43.9,30.6-47.3L283.9,40.3"/>
<path style="fill:#000003;" d="M261.5,33.6c-20.3,19.6-22.7,29.1-36.3,71c-1.1,5.7-2.3,9.4-6,9.6c0,0-1.7,0-3.7-2.6
	c-1.9-2.4-8.2-8.6-12.1-12.5c-7.9-7.9-16.5-15-26.2-20.7c-7.6-4.5-15.6-8.2-24.1-10.7c-3.5-1-7.1-1.5-10.7-2.1
	c-7.5-1.1-15-1.5-22.6-1.4c-9,0.2-17.9,1.1-26.8,2.9c-12.7,2.5-24.9,6.2-36.9,11.1c-9.7,4-19.2,8.6-28.5,13.5
	c-8.2,4.3-16.4,8.5-24.6,12.7c-0.9,0.5-1.7,0.8-2.9,1.3v-5.2c1.3-0.6,2.5-1.1,3.8-1.7c6.8-3.3,13.6-6.6,20.4-9.8
	c7.3-3.5,14.6-7.1,22.1-10.4c10.2-4.6,20.7-8.4,31.5-11.4c10.3-2.8,20.8-4.8,31.4-5.7c7.5-0.6,15-0.7,22.5-0.4
	c15.8,0.6,30.5,4.9,44.4,12.3c9.7,5.2,17.6,10.5,26,17.5c3.1,2.6,11.9,10.2,13.6,10.2c7.4-0.9,11.1-31.2,18.1-46.8
	c5.5-12.1,10.8-17.9,17.3-23.8L261.5,33.6"/>
<path style="fill:#000003;" d="M0.6,97.8v-5.3c0.2-0.1,0.4-0.3,0.6-0.3c7.9-2.9,15.5-6.5,23.1-10c8-3.6,16-7.2,24.1-10.7
	c7.2-3,14.5-5.7,21.9-8c8.3-2.6,16.8-4.8,25.4-6.3c7.3-1.3,14.7-2.2,22.1-2.6c8.4-0.5,16.8-0.4,25.2,0.4c8.9,0.9,17.6,2.8,26.1,5.8
	c8.8,3.1,17.3,6.9,25.6,11c3.6,1.8,7.3,3.6,11,5.4c0.9,0.5,2.9,0.2,3.7-0.3c2.5-1.6,2.6-2.6,3.4-5.7c5.1-27.5,20.5-46.9,20.1-47.1
	c-0.3-0.1,7.7,2.6,10.2,3.4c-0.4,0.9-10.2,7.7-19.6,40c-4.5,15.6-6,18.5-8.8,20.6c-1.3,1-2.4,1-3.7,0.2c-3.3-2.2-6.7-4.3-10.1-6.4
	c-7.3-4.7-14.8-9.1-22.7-12.8c-7.7-3.6-15.7-6.6-23.9-8.6c-5-1.2-10-1.8-15.1-2.1c-4.4-0.3-8.9-0.5-13.4-0.5
	c-9.7-0.1-19.3,0.9-28.8,2.6c-10.7,1.9-21.2,4.7-31.5,8.3c-9,3.1-17.8,6.7-26.3,10.8c-8.3,3.9-16.6,8-24.9,12
	c-3.9,1.8-7.8,3.5-11.7,5.3C2,97.4,1.4,97.6,0.6,97.8"/>
<path style="fill:#000003;" d="M0.3,89.6l-0.1-5.5c0.2-0.1,0.3-0.2,0.5-0.2c7.1-2.2,13.9-5,20.7-7.9c9.1-3.8,18.2-7.8,27.4-11.4
	C62.1,59.3,75.9,54.9,90,52c7.9-1.7,15.9-2.9,24-3.6c8.9-0.8,17.7-1,26.6-0.7c3.3,0.1,6.5,0.6,9.7,0.9c10.6,1,20.9,3.7,31.1,6.3
	c4.3,1.1,8.6,2.1,12.8,3.3c1.2,0.3,2,0.1,2.9-0.9c2.5-3,3.3-7.2,4.6-10.8c2-5.3,10-23.6,12.1-27.7c0.1-0.1,0.2-0.2,0.3-0.4
	c2.4,0.8,10.4,3.4,10.3,3.7c-7.4,7.9-16.5,35.1-16.6,39c-1,4-1.9,5.9-3.4,7.7c-2.3,2-14.2-4.8-19.8-6.8c-9.9-3.5-19.9-6.6-30.3-8.6
	c-7.2-1.4-14.6-1.7-21.9-1.9c-6.1-0.1-12.2,0.1-18.3,0.6c-9.2,0.8-18.4,2.3-27.4,4.3c-13.7,3.2-26.9,7.5-39.8,13
	c-9.8,4.2-19.5,8.6-29.2,12.9C12.4,84.8,6.9,87,1.5,89.2c-0.4,0.2-0.8,0.3-1.4,0.4"/>
<path style="fill:#000003;" d="M197.9,12.7c2.6,0.9,6.4,2.6,8.9,3.5c-0.1,0.4-5.4,7.4-8.5,16.4c-1.2,3.8-5,15.1-5.8,16.7
	c-0.4,0.8-0.9,1-1.7,0.9c-4-0.5-8.1-1-12.1-1.6c-9.3-1.5-18.7-3-28.1-3.9c-6.3-0.6-12.6-0.6-19-0.4c-4.6,0.2-9.2,0.4-13.8,0.8
	c-10.5,0.9-20.9,2.6-31.2,5c-11.4,2.7-22.5,6.1-33.4,10.2c-7.5,2.9-14.9,6-22.4,9.1C21.9,73,13.2,77,4.1,80
	c-1.3,0.4-2.4,0.8-3.9,1.2v-6c0.2-0.1,0.3-0.1,0.5-0.2c7.4-1.8,14.5-4.5,21.5-7.2c9.8-3.8,19.6-7.8,29.5-11.4
	c13.1-4.9,26.5-8.8,40.1-11.7c10-2.1,20-3.6,30.2-4.4c6.8-0.6,13.7-0.9,20.6-0.8c3.4,0,6.8,0.2,10.2,0.4c8.6,0.6,17.2,1.2,25.8,1.8
	c1.4,0.1,2.9,0.1,4.3,0.2c0.9,0.1,1.4-0.3,1.7-1c1.2-2.3,1.2-3.1,2.5-6.9C188.6,29.8,195.1,14.8,197.9,12.7"/>
<path style="fill:#000003;" d="M182.6,7.5c2.6,0.9,5.1,1.7,7.7,2.6c-0.4,0.9-0.8,1.7-1.2,2.5c-1.6,3.6-3.9,6.6-5.5,10.2
	c-1.4,3-2.1,6.6-3.5,9.6c-0.4,0.9-1,1.1-1.9,1.3c-7.1,0.8-14.3,1-21.4,1.1c-6.7,0.1-13.3,0.1-20,0.6c-6.5,0.6-12.9,1.2-19.3,1.9
	c-10.4,1.2-20.8,3.2-31,5.8c-9.8,2.4-19.5,5.4-29,8.8c-11.6,4.1-22.9,8.8-34.3,13.4C16.1,68,9,70.8,1.6,72.8
	c-0.5,0.1-0.8,0.2-1.4,0.3V67c1.1-0.3,2-0.6,3.1-0.8C11.7,64,20,61,28.1,57.9c13.7-5.2,27.4-10.5,41.4-14.8
	c10.1-3.1,20.4-5.7,30.8-7.9c8.8-1.8,17.6-3.2,26.6-4.2c4.7-0.5,9.4-0.8,14-1.2c9.9-0.9,19.9-1.6,29.8-3.1c0.8-0.1,1.3-0.5,1.7-1.1
	c2.4-4.3,4.7-8.6,7.1-12.8C180.5,11,181.5,9.3,182.6,7.5"/>
<path style="fill:#000003;" d="M0.3,63.1L0.2,57c1.2-0.4,2.4-0.7,3.6-1.1c8.8-2.5,17.5-5,26.1-8c6.9-2.5,13.8-4.9,20.7-7.4
	c18.1-6.4,36.5-12,55.3-16.2c7.4-1.6,14.7-3.1,22.1-4.6c8.3-1.7,16.6-3.2,24.8-4.9c2.4-0.5,4.8-1.2,7.3-1.7c0.9-0.2,1.6-0.7,2.2-1.5
	c1.9-2.4,3.9-4.8,5.7-7.2c0.6-0.7,1.1-1,2.1-0.7c2.2,0.7,4.4,1.3,6.7,2c-0.2,0.4-0.3,0.7-0.5,0.9c-2.5,3.6-5.6,6.5-7.4,10.6
	c-0.6,0.9-1.4,1.5-2.5,1.7c-5.1,0.9-10.1,1.8-15.1,2.8c-11,2.2-22.1,3.5-33,5.5c-10,1.8-19.9,3.9-29.6,6.5
	c-8.3,2.2-16.6,4.6-24.7,7.4c-8.2,2.8-16.4,5.8-24.5,8.8c-9.1,3.4-18.2,7-27.5,9.9c-3.7,1.1-7.4,2.2-11,3.2
	C0.8,63.1,0.7,63.1,0.3,63.1"/>
<path style="fill:#000003;" d="M164.6,2.2c-1.6,1.3-2.9,2.4-4.3,3.5C160,5.9,159.4,6,159,6.1c-6.2,1.6-12.4,3.2-18.6,4.9
	c-4.1,1.1-8.2,2.1-12.3,3.2c-10.5,2.7-21,5.3-31.5,8c-12.3,3.2-24.3,7-36.3,11.1c-9,3.1-17.9,6.4-26.9,9.5
	c-8.3,2.8-16.7,5.4-25.1,8.1c-2.3,0.7-4.7,1.4-7,2.2c-0.4,0.1-0.7,0.2-1.2,0.3v-6.2c0.4-0.1,0.9-0.3,1.4-0.5
	c10.3-3.2,20.6-6.3,30.9-9.6c8.9-2.9,17.6-5.9,26.5-8.9c11.3-3.8,22.7-7.5,34.2-10.7c8.9-2.5,17.8-4.9,26.6-7.3
	c11.8-3.2,23.6-6.2,35.3-9.9c0.4-0.1,0.9-0.2,1.2-0.1C158.9,0.7,161.6,1.4,164.6,2.2"/>
<path style="fill:#000003;" d="M319.4,48.8c-0.3,36.2,0,78.2,0,119.1c0,61.6-0.1,107.3-0.1,114.6c0,2.9-15.1-44.4-18-44.2
	c-7.5,0.6-21.1,0.2-26-0.7c-2.7-0.5-5.1-1.7-7.8-2.6c-2.7-0.7-4-2.9-5.3-4.9c-1.6-2.4-1.8-5.3-1.1-8.3c0.6-2.7,0.7-5.6,0.5-8.4
	c-0.1-1-1.3-2.2-2.3-2.8c-3.9-2.2-5.6-5.5-4.5-9.7c0.6-2.3-0.2-3.9-2.1-5c-1.9-1.1-2.7-3.1-2.6-5.2c0.1-2.3,0.8-4.6,0.9-6.9
	c0-1.1,0.4-3.1,0-4.2c-1.3-3.1-5.3-2.8-8.3-3.1c-2.8-0.3-5.7-0.5-8.4-1.2c-3.6-0.9-5.3-4.8-3.7-8.6c1.2-2.7,3-5.2,4.7-7.8
	c1.5-2.2,3.2-4.2,4.6-6.4c2.2-3.6,4.2-7.3,6.3-10.9c2.7-4.8,2.1-9.7,1-14.7c-1-4.1,46.5-82.4,44.2-81.2c-11.3,55.6-10.4,18-9.2,14
	c8.5-27.8,17.1-4.6,10.3-13c2-7.1-14.4,17.3-11,8.5c2.2-5.7,6.2-3.8,10-8.7c9.5-5.1-2.7,15.8,7.9,5.4c14.2,26.4-12.6-3.2-6.1-7.1
	c5-2.9,11.3,0.7,16.4,1.8c4.3,0.7,2.3,4.1,8.5,2.5"/>
<path style="fill:#000003;" d="M264,136.4c11.4,2.8,20.8-6.3,26.8-30.6c6.1-24.3,10.6-46.7-0.8-49.6c-2.4-0.6,14.6-6,12.5-10.1
	c-4.5-9.1-24.6,5.6-27.8,9.5c-1.3,1.6-26,39.6-27.3,51C244.9,128.7,252.6,133.5,264,136.4"/>
<path style="fill:#BABCBC;" d="M162.4,163c-2.1,1.5-4.3,3.1-6.3,4.8c-1.8,1.5-3.3,3.2-4.4,5.3c1.3-0.1,2.5-0.3,3.7-0.5
	C162.4,171.6,162.8,166.2,162.4,163 M155.2,150.8c-1.7,2.3-3.6,4.5-5.3,6.8c-1.1,1.4-2.4,2.6-3.6,3.9c-3.8,4.2-6.1,8.6-7.1,13.3
	c1.7-0.5,3.8-0.9,6.1-1.1c0.7-1.9,1.7-3.7,3-5.5c0.6-0.8,1.3-1.4,2-2c2.9-2.5,6-5,8.8-7.6c0.2-0.2,0.4-0.4,0.7-0.6
	C158.6,156.1,157,153.6,155.2,150.8 M145.4,135.4c-0.2,1.4-0.8,2.8-1.6,4.1c-0.7,1.1-1.5,2.1-2.3,3.1c-0.3,0.4-0.5,0.8-0.4,1.3
	c0.5,2.7-0.1,5.3-1.2,7.7c-1.1,2.4-2.3,4.7-3.5,7.1c-2.2,4.3-4,8.8-4.8,13.6c-1.5,8.9,0.1,17.2,4.4,25c0.3,0.6,0.6,1.1,0.9,1.6
	c1-1,1.5-2.3,1.5-3.6c-1.2-2.4-2.2-4.9-2.8-7.5c-0.2-0.5-0.3-1-0.4-1.6c-0.1-0.2-0.1-0.6-0.2-1c-1.7-9.7,0.7-18.4,6.5-26.3
	c2.1-2.8,4.2-5.5,6.3-8.2c1.4-1.9,2.7-3.9,3.7-6C149.3,141.5,147.2,138.2,145.4,135.4 M56,30.7c-2.5-1-26.8,8.1-29.2,8.1
	c-1.1,0-26.7,10.3-26.7,8.3c0.4,74.3,0,138.9,0,139.1c0.3,5.3,0.1,20.5,0,34.8c-0.1,12.6,0,23.9,0,24c0,4.3,0.5,20.9,0,35
	c-0.2,6.4,1.5,2.9,3.7,4.7c1,0.8,2.9,1.9,4,1.6c1.8-0.4,2.8,1.1,4.1,1.8c-3.3-1.8-7.1-2.4-10.7-3.7c-0.4-0.1-1-6.2-1-6.2
	c0.5,0.2,0.8,0.3,1.2,0.4c4.4,1.5,8.8,3.1,13.2,4.6c0.5-1,1.1-2,1.6-3c-5.1-1.6-10.1-3.3-15.2-5c-0.3-0.1-0.6-0.2-1-0.4v-5.7
	c0.5,0.1,0.9,0.2,1.3,0.3c5.9,1.9,11.8,3.9,17.7,5.6c0.7-1.3,1.4-2.5,2.1-3.8c-1-0.2-1.9-0.4-2.9-0.6c-6.1-1.3-12-3.2-18.1-4.9V260
	c1,0.3,1.9,0.5,2.9,0.8c7.1,2.2,14.4,3.6,21.8,4.3c0.7-1.2,1.4-2.3,2.1-3.4c-0.9,0-1.8-0.1-2.7-0.1c-7.9-0.4-15.7-1.5-23.2-3.8
	c-0.3-0.1-0.5-0.2-0.9-0.3v-5.7c1,0.2,1.8,0.4,2.7,0.6c5.3,1.1,10.7,1.6,16.1,1.6c1.6,0,3.1,0,4.7-0.1c4.3-0.2,8.6-0.5,12.9-0.7
	c5.7-2.1,8.1-2.6,13.4-2.6c2.6,0,5.9,0.1,10.7,0.3c2.5,0.3,4.9,0.6,7.2,1c-1-0.5-2-1-2.9-1.4c-5.8-2.7-11.7-4-17.8-4
	c-2.1,0-4.3,0.2-6.4,0.5c-5.1,0.7-10.1,1.7-15.2,2.5c-4.4,0.7-8.7,1.2-13.1,1.2c-1.2,0-2.4,0-3.6-0.1c-2.2-0.1-4.3-0.4-6.4-0.7
	c-0.7-0.1-1.3-0.2-2.1-0.4v-5.9c0.1,0,0.2-0.1,0.3-0.1c0,0,0,0,0,0c2,0.2,4,0.3,5.9,0.3c5.7,0,11.3-0.9,16.8-2.4
	c4.6-1.2,9.1-2.6,13.7-3.8c3.6-1,7.2-1.6,10.9-1.6c0.3,0,0.6,0,0.9,0c5.4,0.1,10.3,1.8,14.9,4.3c5.6,3,10.7,6.8,15.8,10.5
	c1.4,1,2.7,2,4.1,3c1.2,0.1,2.4,0.1,3.7,0.1c0.7,0,1.5,0,2.2,0c0.9,0,1.8-0.1,2.7-0.2c-5.9-4.9-11.8-9.8-17.8-14.6
	c-3.5-2.8-7.2-5.5-11.1-7.7c-4.3-2.4-8.6-3.5-13.1-3.5c-3.2,0-6.5,0.6-9.8,1.8c-3.5,1.2-6.9,2.6-10.3,4.1
	c-5.6,2.3-11.1,4.7-17.1,5.9c-3.3,0.7-6.7,1.1-10.1,1.1c-0.9,0-1.9,0-2.8-0.1v-6.2c1.7-0.2,3.4-0.3,5-0.6c4.6-0.7,9-1.9,13.2-3.9
	c4.8-2.3,9.5-4.8,14.2-7.3c3.5-1.8,7.1-3.6,10.9-4.9c2.5-0.8,4.9-1.3,7.4-1.3c3.7,0,7.2,1,10.7,2.9c3.9,2.2,7.2,5.1,10.4,8.1
	c5.3,5.1,10.5,10.2,15.7,15.2c0.7,0.7,1.5,1.4,2.3,2.1c0.2-0.1,0.4-0.1,0.5-0.2c2.7-1.6,5.5-2.2,8.4-2.2c1.3,0,2.6,0.1,4,0.3
	c4.5,0.7,8.8,2.1,13,3.7c0.1-0.1,0.2-0.2,0.3-0.3c1.8-1.8,2.6-3.8,2.7-6c-0.1,0-0.2-0.1-0.2-0.1c-4.4-1.9-8.7-4-13.1-5.8
	c-2-0.8-4.1-1.4-6.2-1.8c-1.2-0.3-2.4-0.4-3.5-0.4c-2.3,0-4.6,0.5-6.9,1.6c-2.7-3-5.2-6-7.8-8.8c-3.1-3.4-6.1-6.7-9.3-10
	c-2.2-2.2-4.7-4.1-7.5-5.6c-2.7-1.4-5.4-2.1-8.2-2.1c-1.7,0-3.4,0.2-5.2,0.7c-4.1,1.1-7.8,3-11.3,5.2c-5.8,3.6-11.5,7.4-17.4,10.9
	c-6,3.6-12.4,6.2-19.4,7.4c-0.8,0.1-2.4,1.1-2.4,0.3c0-1-0.8-6.4,0.8-6.8c1.9-0.5,3.8-0.6,6-1.3c5-1.7,9.5-4.5,13.8-7.5
	c5.4-3.8,10.8-7.7,16.2-11.5c4-2.8,8-5.4,12.5-7.3c2.3-0.9,4.6-1.6,7.1-1.8c0.4,0,0.9,0,1.3,0c4.4,0,8.1,1.8,11.2,4.8
	c2.1,2,4.1,4.2,5.8,6.6c3.4,4.4,6.5,9,9.8,13.5c0.3,0.5,0.7,0.9,1.1,1.4c0.3,0,0.5,0,0.7-0.1c1.6-0.6,3.2-0.9,4.8-0.9
	c1.5,0,3.1,0.3,4.7,0.7c2.9,0.9,5.5,2.1,8.1,3.7c4.4,2.6,8.8,5.3,13.2,8c-0.6-2.3-0.9-4.7-1-7c-0.9-0.6-1.7-1.3-2.5-2
	c-4.7-3.7-9.3-7.5-14-11.1c-2.2-1.7-4.6-3-7.2-4c-1.5-0.5-2.9-0.8-4.4-0.8c-0.7,0-1.5,0.1-2.2,0.2c-0.3,0-0.6,0.1-0.8,0.1
	c0,0,0,0,0,0c-0.1,0-0.2,0-0.4-0.1c-0.2-0.4-0.5-0.8-0.8-1.3c-2.5-4.3-5-8.7-7.6-12.9c-1.1-1.8-2.5-3.5-3.9-5.1
	c-3-3.3-6.6-4.9-10.5-4.9c-1.7,0-3.4,0.3-5.2,0.8c-4.8,1.4-9,4.1-13,6.9c-5.8,4-11,8.6-16.4,13.1c-4.2,3.5-8.4,6.8-13,9.7
	c-4.1,2.6-8.5,4.7-13.2,6c-0.2,0.1-0.8-0.2-0.8,0.2c0-1.2-0.1-2.2-0.1-3.3c0-1.1,0-2.2,0-3.4c1.3-0.5,2.4-1,3.6-1.6
	c5.6-2.5,10.7-5.8,15.4-9.7c5.5-4.5,10.8-9.2,16.2-13.8c4.8-4.1,9.7-8,15.1-11.2c3.7-2.2,7.6-4.1,11.9-5c1.2-0.2,2.3-0.3,3.4-0.3
	c4.7,0,8.3,2.1,11.2,6.5c2.4,3.5,4,7.4,5.6,11.3c0.8,1.9,1.6,3.9,2.4,5.9c0.2,0,0.3,0,0.4,0c0.1,0,0.1,0,0.2,0
	c0.6-0.1,1.2-0.1,1.8-0.1c3,0,5.7,1.2,8.1,3c3,2.2,5.6,4.9,8.2,7.7c4.5,4.9,9.1,9.8,14.2,14.2c0.9-0.6,1.9-1,2.9-1.3
	c0.4-0.1,0.9-0.3,1.3-0.4c-2.6-2.4-5-4.9-7.4-7.6c-3.9-4.5-7.3-9.4-10.9-14.1c-1.8-2.5-3.7-4.9-5.7-7.2c-0.9-1-2-1.9-3.1-2.7
	c-1.7-1.3-3.7-2.1-5.9-2.1c-0.9,0-1.2-0.4-1.5-1.2c-0.8-3.1-1.7-6.2-2.7-9.2c-0.8-2.2-1.7-4.4-2.8-6.4c-2.4-4.2-6.1-6-10.5-6
	c-0.6,0-1.2,0-1.9,0.1c-2.3,0.2-4.4,0.8-6.5,1.6c-5.1,1.9-9.7,4.7-14.2,7.9c-7.2,5.2-13.7,11.1-20.2,17.1
	c-5.1,4.7-10.3,9.5-15.9,13.7c-3.7,2.7-7.6,5.2-11.9,7c-0.2,0.1-0.4,0.2-0.9,0.3v-6.7c0.7-0.4,1.5-0.8,2.2-1.2
	c4.8-2.5,9.3-5.7,13.3-9.2c6-5.2,11.8-10.5,17.7-15.8c7-6.3,14.1-12.3,22.1-17.3c5.1-3.2,10.4-5.8,16.2-7.3c1.9-0.5,3.8-0.7,5.7-0.7
	c1.2,0,2.4,0.1,3.6,0.4c3.2,0.7,5.6,2.5,7.1,5.3c1.5,2.8,2.2,5.8,2.7,8.9c0.3,2,0.6,4.1,0.9,6.1c0.1,0.4,0.1,0.8,0.2,1.3
	c5.1,0.6,8.1,3.9,10.4,8c2.3,4.1,4.5,8.3,6.6,12.4c4.5,8.6,10.1,16.3,17,23c0.9-0.5,1.7-1.1,2.3-1.8c-3.9-3.8-7.3-8.1-10.4-12.8
	c-3.8-5.8-6.5-12.2-9-18.6c-1.4-3.5-2.8-6.9-4.3-10.3c-0.8-1.8-2-3.4-3.5-4.7c-1.1-1-2.4-1.8-3.9-2.1c-0.1-3.1-0.1-6.1-0.4-9
	c-0.1-1.8-0.4-3.6-0.9-5.4c-1.4-5.2-5-7.7-10.1-8.2c-0.7-0.1-1.5-0.1-2.2-0.1c-3.4,0-6.8,0.7-10.1,1.8c-6.9,2.2-13.1,5.6-19.1,9.7
	c-8.3,5.6-15.8,12.2-23.1,19c-5.1,4.8-10.3,9.5-15.5,14.2c-4.6,4.1-9.4,7.8-14.8,10.6c-0.2,0.1-0.4,0.2-0.9,0.5
	c-0.1-2.3,0-4.4,0-6.5c0.9-0.5,1.6-1,2.4-1.5c4.7-2.9,9.1-6.4,13.3-10.1c6.9-6.1,13.7-12.3,20.6-18.4c7.7-6.8,15.8-13,24.7-18.1
	c7-4,14.3-7.2,22.2-8.8c2.4-0.5,4.8-0.8,7.3-0.8c1.5,0,3,0.1,4.4,0.4c2.7,0.5,5.2,1.4,7.1,3.4c1.8,1.9,2.6,4.2,2.8,6.8
	c0.3,3.2-0.2,6.4-0.6,9.6c-0.1,0.5-0.1,0.9-0.2,1.5c0.1,0.1,0.3,0.3,0.4,0.3c2.5,1.4,4.2,3.6,5.2,6.3c1.3,3.4,1.9,6.9,2.7,10.4
	c1.2,5.7,2.4,11.3,4.6,16.8c3.1,7.8,7.4,14.8,13.1,20.8c0.3-1.5,0.1-3.2-0.8-5c-2.8-3.6-5.3-7.5-7.3-11.9c-2.9-6.3-4.6-13-5.3-19.9
	c-0.4-4-0.7-8-1.2-12c-0.2-1.6-0.5-3.1-0.9-4.6c-0.6-2.2-1.7-4.1-3.5-5.5c0.7-2.8,1.4-5.4,1.9-8c0.2-1.1,0.4-2.3,0.4-3.4
	c0.1-4.9-2.1-8.3-6.6-10.2c-3.2-1.4-6.6-1.8-10-1.8c-0.6,0-1.2,0-1.8,0c-8,0.3-15.5,2.6-22.8,5.7c-9.6,4.1-18.3,9.8-26.6,16.1
	c-7,5.4-13.5,11.3-20.1,17.3c-6.2,5.6-12.3,11.4-19.1,16.4c-1.8,1.3-3.7,2.5-5.5,3.7c-0.2,0.1-0.4,0.2-0.7,0.4v-6.2
	c2.3-1.6,4.7-3.2,6.9-4.9c6.2-4.7,12-9.8,17.9-15c7.3-6.5,14.7-12.8,22.6-18.5c9.2-6.7,18.9-12.4,29.6-16.4c8-3,16.3-4.9,24.9-4.9
	c0.3,0,0.5,0,0.8,0c4.2,0.1,8.4,0.5,12.2,2.2c2,0.9,4,2,5.6,3.4c2.3,1.9,3.2,4.6,3,7.6c-0.2,2.6-1,5-2,7.3c-0.5,1.1-0.9,2.1-1.5,3.3
	c2.7,3.1,2.8,7,2.6,10.8c0,1-0.1,1.9-0.2,2.9c-0.3,3.8-0.7,7.7-0.8,11.5c-0.2,6.6,0.8,13,3.1,19.2c1.4,3.8,3.2,7.3,5.4,10.6
	c0.7-0.6,1.8-1.1,3-1.5c0.1,0,0.2-0.1,0.3-0.1c-3.4-5.3-5.6-11.1-6.6-17.6c-0.9-5.7-0.5-11.4,0.8-17c1-3.9,2.1-7.8,3.2-11.7
	c0.7-2.5,1.2-5.1,0.8-7.7c-0.1-0.4-0.1-0.8-0.2-1.1c-0.6-1.1-0.2-2,0.4-3c1-1.5,1.8-3.1,2.5-4.7c1.7-4.2,0.7-8-2.4-11.2
	c-1.7-1.8-3.8-3.2-6.1-4.3c-4.7-2.2-9.6-3.2-14.7-3.6c-1.5-0.1-3-0.2-4.6-0.2c-8.4,0-16.6,1.7-24.6,4.3c-9.4,3.1-18.2,7.6-26.6,13
	c-8.1,5.2-15.6,11-22.8,17.3c-6.5,5.6-12.8,11.4-19.4,17c-3.5,3-7.1,5.7-10.7,8.5c-0.7,0.6-1.4,0.9-2.4,1.6c0-2.1-0.2-3.8-0.1-5.6
	c0-0.3,0.4-0.7,0.7-0.9c3.6-2.7,7.4-5.3,10.9-8.2c5.6-4.6,11.2-9.4,16.7-14.1c7.9-6.7,16-13,24.7-18.6c9.3-6,19-10.9,29.6-14.3
	c7.4-2.4,14.9-4,22.7-4.4c1.5-0.1,2.9-0.1,4.4-0.1c7.8,0,15.4,1.2,22.6,4.5c1.8,0.8,3.6,1.8,5.2,2.9c-0.3-2-0.2-4.1,0.2-6
	c-4.6-2.1-9.5-3.5-14.5-4.3c-3.8-0.6-7.6-0.9-11.4-0.9c-6.4,0-12.8,0.8-19.1,2.2c-11.8,2.7-22.8,7.3-33.3,13.3
	c-10,5.7-19.3,12.4-28.1,19.8c-6.3,5.2-12.5,10.5-18.8,15.7c-3.6,2.9-7.3,5.6-11,8.4c-0.4,0.3-0.8,0.5-1.5,1c0-1.9,0.1-3.4,0.1-5
	c0-0.5,0.1-0.8,0.5-1.1c9.5-6.3,17.9-13.9,26.8-21c8.7-6.9,17.6-13.5,27.1-19.2c9.9-5.9,20.3-10.7,31.3-13.9
	c8.9-2.6,18-4.1,27.2-4.1c0.2,0,0.5,0,0.7,0c7.7,0.1,15.2,1.2,22.5,3.6c0.8,0.3,1.6,0.6,2.4,0.9c0.3-1.2,0.7-2.3,1-3.4
	c0,0,0.1-0.1,0.1-0.1c-2.8-1-5.7-1.8-8.7-2.4c-5.4-1.1-10.9-1.6-16.5-1.6c-1.7,0-3.4,0.1-5.2,0.1c-9.8,0.5-19.4,2.6-28.7,5.8
	c-7.7,2.6-15.1,6.1-22.3,10c-11.1,6.1-21.3,13.5-31.2,21.4c-5.6,4.5-11.1,9-16.7,13.5c-2.9,2.3-5.9,4.5-8.9,6.7
	c-0.5,0.4-1.7,0.5-1.9,1.3c0.2-1.2,0.6-2.1,0.6-2.8c0-1.1-0.4-2,0.2-2.7c0.6-0.7,0.9-1.2,1.8-1.8c5.7-4.2,11.4-8.5,17-12.8
	c7.1-5.4,14.2-11,21.7-16c8.5-5.7,17.3-10.8,26.6-15.1c6.7-3,13.6-5.5,20.7-7.4c8.8-2.3,17.7-3.6,26.7-3.6c0.8,0,1.5,0,2.3,0
	c8.4,0.2,16.5,1.5,24.3,4.2c0.4-0.9,0.7-1.9,1-2.9c-5.7-1.7-11.6-2.8-17.6-3.4c-3.1-0.3-6.2-0.5-9.3-0.5c-3.7,0-7.3,0.2-11,0.6
	c-5.7,0.6-11.4,1.7-16.9,3.2c-6.9,1.8-13.5,4.2-20,7.1c-10,4.4-19.4,9.8-28.5,15.9c-8.2,5.5-16.1,11.6-24,17.6
	c-4.7,3.5-9.5,6.9-14.2,10.3c-0.4,0.3-1.4,0.2-1.4,0.9c0.1-1.8,0-3.3,0-4.9c0-0.4,0.5-0.8,0.8-1c2-1.3,4-2.5,5.9-3.9
	c6.3-4.4,12.5-8.9,18.7-13.4c10.8-7.7,21.9-15,33.9-20.9c6.7-3.4,13.7-6.2,20.9-8.5c6-2,12.2-3.5,18.4-4.5c5.9-1,11.8-1.5,17.7-1.5
	c1.2,0,2.3,0,3.5,0.1c8,0.3,15.9,1.5,23.5,3.9c0.1-1.1,0-2.2-0.1-3.3c0,0,0,0,0,0c-4.5-1-9-1.8-13.6-2.5c-3.9-0.6-7.8-0.8-11.6-0.8
	c-2.3,0-4.6,0.1-6.9,0.2c-7.4,0.4-14.7,1.6-21.9,3.4c-7.1,1.8-14.1,4.1-20.8,7c-10.4,4.4-20.3,9.9-29.8,15.9
	c-9.1,5.9-17.8,12.3-26.7,18.6c-3.5,2.5-7,4.8-10.6,7.3c-0.4,0.3-1.5,0.2-1.4,0.8c-0.2-0.8,0.1-1.9,0.6-2.4c2-2.1,0-3.4,1.8-4.3
	c7.1-3.7,13.3-8.9,19.9-13.4c9.3-6.3,18.7-12.4,28.6-17.7c8.7-4.6,17.6-8.6,27-11.7c5-1.6,10-3,15.1-4.1c8.1-1.7,16.2-2.6,24.4-2.6
	c3.4,0,6.7,0.2,10.1,0.5c5.2,0.5,10.3,1.3,15.3,2.7c-0.2-0.9-0.3-1.7-0.6-2.6c-0.7-0.1-1.4-0.3-2.1-0.4c-3.1-0.5-6.2-1.1-9.4-1.5
	c-4.2-0.5-8.5-0.8-12.7-0.8c-1.9,0-3.8,0.1-5.7,0.2c-5.7,0.3-11.3,1-16.8,2c-9.4,1.8-18.5,4.5-27.4,8.1
	c-10.9,4.4-21.4,9.8-31.3,16.1c-8.7,5.6-17.3,11.4-26,17.1c-3.3,2.2-6.6,4.3-9.9,6.4c-0.2,0.1-0.4,0.2-0.8,0.4c0-1,0-1.8,0-2.6
	c0-0.5,0.1-1,0-1.4c-0.1-0.8,0.3-1.2,1-1.6c9-5.6,18-11.2,27-16.9c10-6.3,20.2-12.1,30.9-16.9c6.6-3,13.4-5.6,20.4-7.7
	c7.5-2.3,15.2-4,23-5c5.2-0.7,10.4-1,15.6-1c2.6,0,5.1,0.1,7.7,0.3c5.3,0.4,10.5,1.1,15.7,2.2c-0.3-0.9-0.6-1.8-0.9-2.7
	c-0.7-0.1-1.3-0.2-2-0.3c-5.8-0.8-11.5-1.5-17.3-1.5c-0.5,0-1.1,0-1.6,0c-6.2,0-12.4,0.4-18.6,1.3c-8.9,1.3-17.5,3.4-26,6.3
	C66.4,92,58,95.6,49.8,99.8c-10.9,5.6-21.3,12.1-31.7,18.7c-5.3,3.4-10.7,6.7-16,10c-0.5,0.3-1,0.5-1.6,0.9c0-1.7,0-3.1,0-4.6
	c0-0.3,0.5-0.7,0.8-0.9c5.1-3,10.2-5.9,15.3-8.9c8.1-4.9,16.2-9.9,24.6-14.3c5.5-2.9,11.1-5.6,16.8-8.2c9-4.1,18.4-7.3,28.1-9.8
	c9.3-2.3,18.8-3.7,28.4-4.1c1.5-0.1,2.9-0.1,4.4-0.1c3.5,0,7,0.2,10.6,0.4c3.3,0.3,6.6,0.7,9.9,1.2c-0.4-0.9-0.8-1.8-1.2-2.7
	c-6-0.9-12.1-1.4-18.2-1.4c-1.8,0-3.6,0-5.5,0.1c-9.7,0.4-19.2,1.9-28.6,4.2c-9.3,2.3-18.4,5.5-27.2,9.2
	c-9.9,4.2-19.3,9.2-28.6,14.5c-7.9,4.6-15.8,9.3-23.7,13.9c-1.9,1.1-3.9,2.1-6,3.3c0-1.7-0.1-3.2,0-4.6c0-0.3,0.6-0.7,1-0.9
	c2.2-1.2,4.4-2.2,6.5-3.4c7.9-4.4,15.8-8.8,23.6-13.1c8.5-4.7,17.3-9,26.2-12.8c8.5-3.6,17.2-6.5,26.1-8.8c6.8-1.7,13.7-3,20.6-3.8
	c5.2-0.6,10.4-0.9,15.7-0.9c3.3,0,6.7,0.1,10.1,0.4c2.1,0.2,4.2,0.4,6.3,0.7c-0.5-1-1-2-1.5-3c-4.9-0.6-9.8-0.8-14.7-0.8
	c-2.3,0-4.5,0.1-6.8,0.2c-9,0.4-17.9,1.7-26.8,3.8c-10,2.3-19.7,5.5-29.1,9.5C49,87.3,40.6,91.5,32.3,96c-9.9,5.5-19.8,11-29.7,16.4
	c-0.7,0.4-1.3,0.6-2.2,1c0-1.6-0.1-3-0.1-4.3c0-0.6,0.3-0.8,0.8-1.1c1.2-0.5,2.3-1.1,3.5-1.6c7.7-4,15.4-8,23-12
	c8.6-4.5,17.3-8.8,26.2-12.6c10-4.2,20.2-7.7,30.8-10.3c7.6-1.8,15.3-3.1,23-3.8c4.3-0.4,8.6-0.6,12.9-0.6c4.2,0,8.5,0.2,12.7,0.6
	c-0.6-1-1.2-2-1.8-3.1c-2.7-0.2-5.5-0.2-8.3-0.2c-1.1,0-2.1,0-3.2,0c-9,0.2-17.9,1.1-26.8,2.9c-12.7,2.5-24.9,6.2-36.9,11.1
	c-9.7,4-19.2,8.6-28.5,13.5c-8.2,4.3-16.4,8.5-24.6,12.7c-0.9,0.5-1.7,0.8-2.8,1.3v-5.2c1.3-0.6,2.5-1.1,3.8-1.7
	c6.8-3.3,13.6-6.6,20.4-9.8c7.3-3.5,14.6-7.1,22.1-10.4c10.2-4.6,20.7-8.4,31.5-11.4c10.3-2.8,20.8-4.8,31.4-5.7
	c4.7-0.4,9.4-0.6,14.1-0.6c1.9,0,3.8,0,5.6,0.1c-0.6-1-1.3-2-1.9-3c-0.5,0-1.1,0-1.6,0c-0.3,0-0.6,0-0.8,0c-9.4,0-18.7,1-27.9,2.6
	c-10.7,1.9-21.2,4.7-31.5,8.3c-9,3.1-17.8,6.7-26.3,10.8c-8.3,3.9-16.6,8-24.9,12c-3.9,1.8-7.8,3.5-11.7,5.3
	c-0.6,0.3-1.2,0.5-1.9,0.8v-5.3c0.2-0.1,0.4-0.3,0.6-0.3c7.9-2.9,15.5-6.5,23.1-10c8-3.6,16-7.2,24.1-10.7c7.2-3,14.5-5.7,21.9-8
	c8.3-2.6,16.8-4.8,25.4-6.3c7.3-1.3,14.7-2.2,22.1-2.6c2.4-0.1,4.8-0.2,7.1-0.3c-0.6-0.9-1.3-1.9-1.9-2.8c-3,0.1-6,0.3-8.9,0.6
	c-9.2,0.8-18.4,2.3-27.4,4.3C73,59.8,59.7,64.2,46.8,69.7c-9.8,4.2-19.5,8.6-29.2,12.9C12.3,84.9,6.8,87,1.4,89.3
	c-0.4,0.2-0.7,0.2-1.2,0.3v-5.5C0.4,84,0.4,84,0.6,83.9c7.1-2.2,13.9-5,20.7-7.9c9.1-3.8,18.2-7.8,27.4-11.4
	C62,59.3,75.7,55,89.8,52c7.9-1.7,15.9-2.9,24-3.6c2.1-0.2,4.3-0.4,6.4-0.5c-0.7-1-1.4-1.9-2.2-2.9c-0.1,0-0.2,0-0.3,0
	c-10.5,0.9-20.9,2.6-31.2,5c-11.4,2.7-22.5,6.1-33.4,10.2c-7.5,2.9-15,6-22.4,9.1C21.9,73,13.2,77,4.1,80c-1.3,0.4-2.5,0.8-3.9,1.2
	v-6c0.2-0.1,0.3-0.1,0.5-0.2c7.4-1.8,14.5-4.5,21.5-7.2C32,64,41.8,60.1,51.7,56.4c13.1-4.9,26.5-8.8,40.1-11.7
	c7.6-1.6,15.3-2.8,23.1-3.7c-0.8-1.1-1.7-2.1-2.6-3.2c-8.7,1.2-17.4,3-25.9,5.1c-9.8,2.5-19.5,5.4-29,8.8
	c-11.6,4.1-22.9,8.8-34.3,13.4C16.1,68,9,70.8,1.6,72.8c-0.5,0.1-0.8,0.2-1.4,0.3V67c1.1-0.3,2-0.6,3.1-0.8
	c8.5-2.1,16.7-5.1,24.8-8.2c13.7-5.2,27.4-10.5,41.4-14.8c10.1-3.1,20.4-5.7,30.8-7.9c2.8-0.6,5.7-1.1,8.5-1.6
	c-1.1-1.3-2.2-2.6-3.4-3.9c-5.7,1.2-11.3,2.5-16.9,4c-8.3,2.2-16.6,4.6-24.7,7.4c-8.2,2.8-16.4,5.8-24.5,8.8
	c-9.1,3.4-18.2,7-27.5,9.9C8.3,60.9,4.6,62,0.9,63c-0.2,0.1-0.3,0-0.7,0.1V57c1.2-0.4,2.2-0.7,3.4-1c8.8-2.5,17.5-5,26.1-8
	c6.9-2.5,13.8-4.9,20.7-7.4c16.7-5.9,33.7-11.2,51-15.2c-1.1-1.2-2.2-2.4-3.4-3.6c-0.5,0.1-1,0.3-1.5,0.4
	c-12.3,3.2-24.3,7-36.3,11.1c-9,3.1-17.9,6.4-26.9,9.5c-8.3,2.8-16.7,5.4-25.1,8.1c-2.3,0.7-4.7,1.4-7,2.2c-0.4,0.1-0.7,0.2-1.2,0.3
	v-6.2c0.4-0.1,0.9-0.3,1.4-0.5c10.3-3.2,20.6-6.3,30.9-9.6c8.9-2.8,61-19.7,61.2-19.8"/>
<path style="fill:#000003;" d="M117.5,88.7c-8.2,0-16.3,0.9-24.4,2.6C88,92.3,83,93.7,78,95.4c-9.4,3.1-18.3,7.1-27,11.7
	c-9.9,5.3-19.3,11.4-28.6,17.7c-6.6,4.5-13.1,9.3-19.9,13.4c-0.6,0.4-1.5,1.3-2.2,1.4c-0.2,0,0,0.3,0,0.4c0.1,0.9,0.4,1.2,0.3,2.5
	c0,0.7-0.4,1.4-0.4,2.3c0-0.6,1-0.6,1.4-0.8c3.5-2.4,7.1-4.8,10.6-7.3c8.8-6.3,17.5-12.8,26.7-18.6c9.5-6.1,19.3-11.6,29.8-15.9
	c6.8-2.8,13.7-5.2,20.8-7c7.2-1.8,14.5-3,21.9-3.4c2.3-0.1,4.6-0.2,6.9-0.2c3.9,0,7.8,0.2,11.6,0.8c4.5,0.7,9.1,1.5,13.6,2.5
	c0,0,0,0,0,0c-0.1-1-0.2-2.1-0.4-3.1c-5-1.3-10.1-2.2-15.3-2.7C124.2,88.8,120.8,88.7,117.5,88.7"/>
<path style="fill:#000003;" d="M118.2,83.5c-5.2,0-10.4,0.3-15.6,1c-7.8,1-15.5,2.7-23,5c-7,2.1-13.8,4.7-20.4,7.7
	c-10.7,4.9-20.9,10.7-30.9,16.9c-9,5.6-18,11.3-27,16.9c-0.6,0.4-1,0.8-1,1.6c0.1,0.5,0,1,0,1.4c0,0.8,0,1.7,0,2.6
	c0.4-0.2,0.6-0.3,0.8-0.4c3.3-2.1,6.6-4.2,9.9-6.4c8.7-5.7,17.2-11.5,26-17.1c9.9-6.3,20.4-11.7,31.3-16.1c8.9-3.6,18-6.4,27.4-8.1
	c5.6-1,11.2-1.7,16.8-2c1.9-0.1,3.8-0.2,5.7-0.2c4.2,0,8.5,0.3,12.7,0.8c3.1,0.4,6.3,1,9.4,1.5c0.7,0.1,1.4,0.2,2.1,0.4
	c-0.3-1-0.5-2.1-0.9-3.2c-5.2-1.1-10.4-1.9-15.7-2.2C123.3,83.6,120.7,83.5,118.2,83.5"/>
<path style="fill:#000003;" d="M0,278.2l0,5.3v0.3v0.2c0.4,0.2,0.7,0.3,1,0.4c3.6,1.3,7.2,2.5,10.8,3.8c0.9-1.6,1.9-3.3,2.8-4.9
	c-4.4-1.5-9-3.1-13.4-4.6C0.9,278.5,0.5,278.4,0,278.2"/>
<path style="fill:#000003;" d="M0,269.2v5.7c0.4,0.1,0.7,0.3,1,0.4c5.1,1.6,10.1,3.4,15.2,5c0.9-1.7,1.9-3.5,2.8-5.2
	c-6-1.6-11.8-3.7-17.7-5.6C0.9,269.4,0.5,269.3,0,269.2"/>
<path style="fill:#000003;" d="M116.5,94.3c-5.9,0-11.8,0.5-17.7,1.5c-6.3,1.1-12.4,2.6-18.4,4.5c-7.2,2.3-14.1,5.2-20.9,8.5
	c-11.9,5.9-23.1,13.2-33.9,20.9c-6.2,4.5-12.5,9-18.7,13.4C5,144.6,3,145.8,1,147.1c-0.4,0.2-1,0.6-0.9,1c0.1,1.6,0,3.1,0,4.9
	c0.6-0.4,1.1-0.6,1.5-0.9c4.7-3.4,9.5-6.8,14.2-10.3c7.9-6,15.8-12.1,24-17.6c9.1-6.1,18.5-11.5,28.5-15.9c6.5-2.9,13.2-5.3,20-7
	c5.6-1.5,11.2-2.6,16.9-3.2c3.6-0.4,7.3-0.6,11-0.6c3.1,0,6.2,0.2,9.3,0.5c6,0.6,11.8,1.7,17.6,3.4c0.2-1,0.4-2,0.4-3.1
	c-7.6-2.4-15.5-3.6-23.5-3.9C118.8,94.4,117.6,94.3,116.5,94.3"/>
<path style="fill:#000003;" d="M0,260v5.9c6.1,1.7,12,3.6,18.1,4.9c1,0.2,1.9,0.4,2.9,0.6c1.2-2.2,2.4-4.3,3.6-6.3
	c-7.4-0.7-14.7-2.1-21.8-4.3C2,260.5,1,260.2,0,260"/>
<path style="fill:#000003;" d="M109.7,114.1c-1.4,0-2.9,0-4.4,0.1c-7.8,0.4-15.3,2-22.7,4.4C72.2,122,62.4,127,53.1,133
	c-8.7,5.6-16.8,11.9-24.7,18.6c-5.5,4.7-11.1,9.5-16.7,14.1c-3.5,2.9-7.3,5.5-10.9,8.2c-0.3,0.2-0.7,0.6-0.7,0.9
	c-0.1,1.8,0,3.6,0,5.8c1.1-0.7,1.8-1.2,2.6-1.7c3.6-2.8,7.3-5.5,10.7-8.5c6.5-5.6,12.9-11.4,19.4-17c7.2-6.3,14.8-12.1,22.8-17.3
	c8.4-5.4,17.1-9.9,26.6-13c8-2.6,16.2-4.3,24.6-4.3c1.5,0,3,0.1,4.5,0.2c5.1,0.4,10.1,1.4,14.7,3.6c2.3,1.1,4.4,2.4,6.1,4.3
	c3.1,3.2,4.1,7,2.4,11.2c-0.7,1.6-1.5,3.2-2.5,4.7c-0.7,1-1,1.9-0.4,3c0.2,0.3,0.2,0.7,0.2,1.1c0.4,2.6-0.1,5.2-0.8,7.7
	c-1.1,3.9-2.3,7.7-3.2,11.7c-1.4,5.6-1.7,11.3-0.8,17c1,6.5,3.3,12.4,6.6,17.6c1.4-0.5,2.4-1.1,3.2-1.9c-0.3-0.5-0.6-1.1-0.9-1.6
	c-4.3-7.8-5.9-16.2-4.4-25c0.8-4.8,2.6-9.3,4.8-13.6c1.2-2.3,2.4-4.7,3.5-7.1c1.1-2.4,1.8-5,1.2-7.7c-0.1-0.5,0.1-0.9,0.4-1.3
	c0.8-1,1.7-2,2.3-3.1c0.8-1.3,1.4-2.7,1.6-4.1c-1.7-2.5-3.1-4.6-4.1-5.8c-2.2-2.6-3.2-5.3-3.6-8.1c-1.6-1.1-3.4-2.1-5.2-2.9
	C125.1,115.4,117.5,114.1,109.7,114.1"/>
<path style="fill:#000003;" d="M0,251.8v5.7c0.3,0.1,0.7,0.2,0.9,0.3c7.6,2.3,15.3,3.4,23.2,3.8c0.9,0,1.8,0.1,2.7,0.1
	c2.4-3.7,4.5-6.3,6.2-7.2c1.3-0.5,2.4-0.9,3.5-1.3c-4.3,0.3-8.6,0.5-12.9,0.7c-1.6,0.1-3.1,0.1-4.7,0.1c-5.4,0-10.8-0.5-16.1-1.6
	C1.9,252.2,1.1,252,0,251.8"/>
<path style="fill:#000003;" d="M101.9,123.7c-8.6,0-16.9,1.9-24.9,4.9c-10.7,4-20.4,9.7-29.6,16.4c-7.9,5.7-15.3,12.1-22.6,18.5
	c-5.8,5.2-11.6,10.3-17.9,15c-2.3,1.7-4.6,3.3-6.9,4.9v6.3c0.3-0.1,0.6-0.3,0.7-0.5c1.8-1.2,3.7-2.4,5.5-3.7
	c6.8-5,12.9-10.7,19.1-16.4c6.6-5.9,13.1-11.9,20.1-17.3c8.3-6.4,17-12,26.6-16.1c7.3-3.1,14.8-5.3,22.8-5.7c0.6,0,1.2,0,1.8,0
	c3.4,0,6.8,0.4,10,1.8c4.5,1.9,6.8,5.3,6.6,10.2c0,1.1-0.2,2.3-0.4,3.4c-0.6,2.6-1.3,5.2-1.9,8c1.8,1.4,2.9,3.3,3.5,5.5
	c0.4,1.5,0.8,3.1,0.9,4.6c0.4,4,0.7,8,1.2,12c0.8,6.9,2.4,13.6,5.3,19.9c2,4.3,4.5,8.3,7.3,11.9c0,0,0,0,0-0.1c-1-2.2-0.6-3.8,0.9-5
	c-2.2-3.3-4-6.8-5.4-10.6c-2.3-6.2-3.3-12.6-3.1-19.2c0.1-3.8,0.5-7.7,0.8-11.5c0.1-1,0.2-1.9,0.2-2.9c0.2-3.9,0.1-7.7-2.6-10.8
	c0.5-1.2,1-2.2,1.5-3.3c1-2.3,1.9-4.7,2-7.3c0.2-3-0.7-5.7-3-7.6c-1.7-1.4-3.6-2.5-5.6-3.4c-3.9-1.7-8-2.1-12.2-2.2
	C102.5,123.7,102.2,123.7,101.9,123.7"/>
<path style="fill:#000003;" d="M159.9,158c-0.2,0.2-0.4,0.4-0.7,0.6c-2.8,2.6-5.9,5.1-8.8,7.6c-0.7,0.6-1.5,1.3-2,2
	c-1.3,1.8-2.3,3.6-3,5.4c2-0.2,4.2-0.4,6.3-0.6c1.1-2.1,2.6-3.8,4.4-5.3c2-1.7,4.2-3.3,6.3-4.8c-0.2-1.4-0.5-2.4-0.5-2.4
	C161.4,160.1,160.7,159.2,159.9,158 M115.4,100.1c-9.1,0-18,1.3-26.7,3.6c-7.1,1.9-14,4.3-20.7,7.4c-9.3,4.2-18.2,9.3-26.6,15.1
	c-7.4,5-14.5,10.5-21.7,16c-5.6,4.3-11.4,8.5-17,12.8c-0.8,0.6-2.1,1.4-2.5,1.9c-0.4,0.7,3.8,0.3,3.1,1.2c-0.4,0.6-2.9,3.3-3.3,4.3
	c0.3-0.8,1.4-0.9,1.9-1.3c3-2.2,6-4.4,8.8-6.7c5.6-4.5,11.1-9,16.7-13.5c9.9-7.9,20.1-15.3,31.2-21.4c7.2-3.9,14.5-7.4,22.3-10
	c9.3-3.2,18.8-5.2,28.7-5.8c1.7-0.1,3.4-0.1,5.2-0.1c5.5,0,11,0.5,16.5,1.6c3,0.6,5.8,1.4,8.7,2.4c0.9-0.9,1.6-2,2.2-3.2
	c-7.8-2.7-16-4-24.3-4.2C117,100.1,116.2,100.1,115.4,100.1"/>
<path style="fill:#000003;" d="M47.8,235.9c-3.7,0-7.4,0.6-11,1.6c-4.6,1.2-9.1,2.6-13.7,3.8c-5.5,1.5-11.2,2.4-16.8,2.4
	c-2,0-3.9-0.1-5.9-0.3c0,0,0,0,0,0c-0.1,0-0.2,0.1-0.3,0.1l0,6c0.7,0.1,1.4,0.3,2,0.3c2.1,0.2,4.3,0.5,6.4,0.7
	c1.2,0.1,2.4,0.1,3.6,0.1c4.4,0,8.8-0.5,13.1-1.2c5.1-0.8,10.1-1.8,15.2-2.5c2.2-0.3,4.3-0.5,6.4-0.5c6.1,0,12.1,1.3,17.8,4
	c1,0.5,2,0.9,2.9,1.4c5.6,0.8,10.5,1.7,15.8,2c-1.4-1-2.7-2-4.1-3c-5.1-3.8-10.2-7.6-15.8-10.5c-4.7-2.5-9.6-4.1-14.9-4.3
	C48.4,235.9,48.1,235.9,47.8,235.9"/>
<path style="fill:#000003;" d="M135.4,187.9c0.7,2.6,1.6,5.1,2.8,7.5c0-0.3,0-0.6-0.1-0.9C137.7,192.9,136.2,190.5,135.4,187.9
	 M151.4,144.8c-1,2.1-2.2,4.1-3.7,6c-2.1,2.7-4.3,5.4-6.3,8.2c-5.8,7.9-8.3,16.6-6.5,26.3c-0.3-2.3-0.4-6.6,0.3-7.8
	c0.8-1.2,2.2-2.1,4.1-2.7c1-4.7,3.3-9.2,7.1-13.3c1.2-1.3,2.5-2.5,3.6-3.9c1.7-2.3,3.6-4.5,5.3-6.8
	C154,148.9,152.7,146.9,151.4,144.8 M113.2,106.5c-9.3,0-18.3,1.5-27.2,4.1c-11.1,3.2-21.4,8-31.3,13.9
	c-9.6,5.7-18.5,12.3-27.1,19.2c-8.9,7.1-17.3,14.7-26.8,21c-0.5,0.3-0.6,0.5-0.6,1.1c0,1.6-0.1,3.1-0.1,5c0.7-0.4,1.1-0.7,1.5-1
	c3.7-2.8,7.4-5.5,11-8.4c6.3-5.2,12.5-10.5,18.8-15.7c8.9-7.3,18.1-14,28.1-19.8c10.5-6,21.5-10.6,33.3-13.3
	c6.4-1.4,12.7-2.2,19.1-2.2c3.8,0,7.6,0.3,11.4,0.9c5.1,0.8,10,2.2,14.5,4.3c0.2-1.5,0.6-3.1,1-4.5c-0.8-0.3-1.6-0.6-2.4-0.9
	c-7.3-2.5-14.8-3.6-22.5-3.6C113.6,106.5,113.4,106.5,113.2,106.5"/>
<path style="fill:#000003;" d="M90.5,136.2c-2.4,0-4.9,0.3-7.3,0.8c-8,1.6-15.3,4.8-22.2,8.8c-8.9,5.1-17,11.4-24.7,18.1
	c-6.9,6.1-13.7,12.3-20.6,18.4c-4.2,3.7-8.5,7.1-13.3,10.1c-0.8,0.5-1.6,1-2.5,1.5c0,2.2,0,4.3,0,6.6c0-0.5,0.7-0.4,1-0.5
	c5.4-2.9,10.2-6.6,14.8-10.6c5.2-4.7,10.3-9.4,15.5-14.2c7.3-6.8,14.8-13.4,23.1-19c6-4,12.2-7.4,19.1-9.6c3.3-1.1,6.7-1.8,10.1-1.8
	c0.7,0,1.5,0,2.2,0.1c5.1,0.5,8.7,2.9,10.1,8.2c0.5,1.7,0.8,3.6,0.9,5.4c0.2,3,0.3,5.9,0.4,9c1.5,0.4,2.8,1.1,3.9,2.1
	c1.5,1.3,2.7,2.9,3.5,4.7c1.5,3.4,3,6.9,4.3,10.3c2.5,6.4,5.3,12.8,9,18.6c3,4.7,6.5,8.9,10.4,12.8c1-1,1.6-2.1,1.8-3.4
	c-5.7-6-10.1-13-13.1-20.9c-2.1-5.4-3.4-11.1-4.6-16.8c-0.7-3.5-1.3-7.1-2.7-10.4c-1.1-2.7-2.7-4.9-5.2-6.3
	c-0.2-0.1-0.3-0.2-0.4-0.3c0.1-0.5,0.1-1,0.2-1.5c0.5-3.2,0.9-6.4,0.6-9.6c-0.2-2.6-1-4.9-2.8-6.8c-1.9-2.1-4.5-2.9-7.1-3.4
	C93.5,136.3,92,136.2,90.5,136.2"/>
<path style="fill:#000003;" d="M50.8,216.4c-2.4,0-4.9,0.4-7.4,1.3c-3.8,1.3-7.4,3-10.9,4.9c-4.7,2.4-9.4,4.9-14.2,7.3
	c-4.2,2-8.6,3.2-13.2,3.9c-1.6,0.3-3.3,0.4-5,0.6v6.2c0.9,0.1,1.9,0.1,2.8,0.1c3.4,0,6.8-0.4,10.1-1.1c5.9-1.3,11.5-3.6,17.1-5.9
	c3.4-1.4,6.8-2.9,10.3-4.1c3.3-1.2,6.6-1.8,9.9-1.8c4.4,0,8.8,1.1,13.1,3.5c4,2.2,7.6,4.8,11.1,7.7c6,4.8,11.9,9.7,17.8,14.6
	c4.4-0.4,8.6-1.3,13.2-1.9c5.4-0.4,7.9-3,10.3-5.4c-4.3-1.5-8.5-3-13-3.7c-1.3-0.2-2.7-0.3-4-0.3c-2.9,0-5.7,0.6-8.4,2.2
	c-0.2,0.1-0.3,0.1-0.5,0.2c-0.8-0.7-1.5-1.4-2.3-2.1c-5.2-5.1-10.5-10.2-15.7-15.2c-3.2-3.1-6.5-5.9-10.4-8.1
	C58,217.4,54.4,216.4,50.8,216.4"/>
<path style="fill:#000003;" d="M77.3,152.4c-1.9,0-3.8,0.3-5.7,0.7c-5.8,1.4-11.1,4.1-16.2,7.3c-8,5-15.1,11-22.1,17.3
	c-5.9,5.3-11.7,10.6-17.7,15.8c-4.1,3.6-8.5,6.7-13.3,9.2c-0.8,0.4-1.5,0.8-2.2,1.2v6.7c0.4-0.2,0.7-0.2,0.9-0.3
	c4.3-1.8,8.1-4.3,11.9-7c5.7-4.2,10.8-8.9,15.9-13.7c6.5-6,13-12,20.2-17.1c4.4-3.2,9.1-6,14.2-7.9c2.1-0.8,4.3-1.4,6.5-1.6
	c0.6-0.1,1.3-0.1,1.9-0.1c4.5,0,8.1,1.9,10.5,6c1.2,2,2.1,4.2,2.8,6.4c1,3,1.9,6.1,2.7,9.2c0.2,0.8,0.6,1.2,1.5,1.2
	c2.2,0,4.1,0.8,5.9,2.1c1.1,0.8,2.3,1.7,3.1,2.7c2,2.3,3.9,4.7,5.7,7.2c3.5,4.8,7,9.7,10.9,14.1c2.3,2.7,4.8,5.2,7.4,7.6
	c1.5-0.5,2.8-1.1,3.9-1.7c-7-6.6-12.5-14.4-17-23c-2.2-4.2-4.3-8.4-6.6-12.4c-2.3-4.1-5.3-7.5-10.4-8c-0.1-0.5-0.2-0.9-0.2-1.3
	c-0.3-2-0.5-4.1-0.9-6.1c-0.5-3.1-1.2-6.1-2.7-8.9c-1.6-2.8-3.9-4.7-7.1-5.3C79.7,152.5,78.5,152.4,77.3,152.4"/>
<path style="fill:#000003;" d="M57.8,195.3c-0.4,0-0.8,0-1.3,0.1c-2.5,0.2-4.8,0.8-7.1,1.8c-4.5,1.8-8.6,4.5-12.5,7.3
	c-5.4,3.8-10.7,7.7-16.2,11.5c-4.3,3-8.9,5.4-13.9,7.1c-2.2,0.8-4.5,1.3-6.7,2c0,0,0,0.1,0,0.2c0,1.5,0,4.6,0,6c0,0.1,0.1,0.3,0,0.4
	c-0.4,0.2,1.5-0.1,2.5-0.3c7-1.1,13.4-3.7,19.4-7.4c5.9-3.6,11.6-7.3,17.4-10.9c3.6-2.2,7.3-4.1,11.3-5.2c1.7-0.5,3.5-0.7,5.2-0.7
	c2.8,0,5.6,0.7,8.2,2.1c2.8,1.5,5.3,3.4,7.5,5.6c3.2,3.3,6.2,6.6,9.3,10c2.6,2.9,5.1,5.8,7.8,8.8c2.3-1.1,4.6-1.6,6.9-1.6
	c1.2,0,2.3,0.1,3.5,0.4c2.1,0.5,4.2,1,6.2,1.8c4.4,1.8,8.8,3.9,13.1,5.8c0.1,0,0.2,0.1,0.2,0.1c0.1-1.6-0.3-3.3-0.9-5.1
	c-0.2-0.7-0.4-1.3-0.6-2c-4.4-2.6-8.8-5.4-13.2-8c-2.6-1.5-5.2-2.8-8.1-3.7c-1.6-0.5-3.1-0.7-4.7-0.7c-1.6,0-3.2,0.3-4.8,0.9
	c-0.2,0.1-0.5,0.1-0.7,0.1c-0.4-0.5-0.7-0.9-1.1-1.4c-3.2-4.5-6.4-9.1-9.8-13.5c-1.8-2.3-3.7-4.5-5.8-6.6
	C65.9,197.1,62.1,195.3,57.8,195.3"/>
<path style="fill:#000003;" d="M65.8,172.8c-1.1,0-2.2,0.1-3.4,0.3c-4.3,0.8-8.2,2.7-11.9,5c-5.4,3.2-10.3,7.2-15.1,11.2
	c-5.4,4.6-10.8,9.3-16.2,13.8c-4.7,3.9-9.8,7.2-15.4,9.7c-1.2,0.5-2.5,1-3.7,1.5c0,1.2,0,2.3,0,3.4c0,1.1,0.1,2.2,0,3.3
	c0-0.4,0.7-0.2,0.9-0.2c4.7-1.3,9.1-3.4,13.2-6c4.6-2.9,8.8-6.2,13-9.7c5.4-4.5,10.6-9.1,16.4-13.1c4.1-2.8,8.2-5.4,13-6.9
	c1.8-0.5,3.6-0.8,5.2-0.8c3.9,0,7.5,1.5,10.5,4.9c1.4,1.6,2.8,3.3,3.9,5.1c2.6,4.2,5.1,8.6,7.6,12.9c0.3,0.4,0.5,0.9,0.8,1.3
	c0.2,0,0.3,0.1,0.4,0.1c0,0,0,0,0,0c0.3,0,0.6-0.1,0.8-0.1c0.7-0.1,1.5-0.2,2.2-0.2c1.5,0,3,0.3,4.4,0.8c2.6,0.9,5,2.3,7.2,4
	c4.7,3.7,9.3,7.4,14,11.1c0.8,0.7,1.7,1.3,2.5,2c0-0.9,0-1.8,0-2.7c0-0.7,0.7-1.5,1.7-2.1c-5-4.4-9.6-9.3-14.2-14.2
	c-2.5-2.7-5.1-5.5-8.2-7.7c-2.5-1.8-5.1-3-8.1-3c-0.6,0-1.2,0-1.8,0.1c-0.1,0-0.1,0-0.2,0c-0.1,0-0.3,0-0.4,0
	c-0.8-2-1.6-3.9-2.4-5.9c-1.6-3.9-3.2-7.8-5.6-11.3C74.1,174.9,70.4,172.8,65.8,172.8"/>
<path style="fill:#000003;" d="M118.9,78.5c-1.5,0-2.9,0-4.4,0.1c-9.6,0.4-19.1,1.8-28.4,4.1c-9.7,2.4-19,5.6-28.1,9.8
	c-5.7,2.6-11.3,5.3-16.8,8.2c-8.4,4.4-16.5,9.4-24.6,14.3c-5,3.1-10.2,5.9-15.3,8.9c-0.3,0.2-0.8,0.6-0.8,0.9c-0.1,1.5,0,2.9,0,4.6
	c0.6-0.3,1.1-0.6,1.6-0.9c5.3-3.3,10.7-6.6,16-10c10.3-6.6,20.7-13.1,31.7-18.7C58,95.6,66.4,92,75.1,89c8.5-2.9,17.1-5,25.9-6.3
	c6.2-0.9,12.4-1.3,18.6-1.3c0.5,0,1.1,0,1.6,0c5.8,0.1,11.6,0.8,17.3,1.5c0.7,0.1,1.4,0.2,2,0.3c-0.4-1-0.8-2.1-1.2-3.2
	c-3.3-0.6-6.6-1-9.9-1.2C126,78.7,122.5,78.5,118.9,78.5"/>
<path style="fill:#000003;" d="M120.3,73c-5.2,0-10.4,0.3-15.7,0.9c-7,0.8-13.8,2.1-20.6,3.8c-8.9,2.3-17.6,5.2-26.1,8.8
	c-9,3.8-17.7,8.1-26.2,12.8c-7.9,4.4-15.8,8.8-23.6,13.1c-2.1,1.2-4.3,2.2-6.5,3.4c-0.4,0.2-0.9,0.6-1,0.9c-0.1,1.5,0,2.9,0,4.6
	c2.1-1.2,4.1-2.2,6-3.3c7.9-4.6,15.8-9.3,23.7-13.9c9.3-5.4,18.7-10.3,28.6-14.5c8.8-3.8,17.9-6.9,27.2-9.2
	c9.4-2.3,18.9-3.8,28.6-4.2c1.8-0.1,3.6-0.1,5.5-0.1c6.1,0,12.2,0.5,18.2,1.4c-0.5-1.1-1-2.2-1.6-3.3c-2.1-0.3-4.2-0.5-6.3-0.7
	C127,73.2,123.6,73,120.3,73"/>
<path style="fill:#000003;" d="M120.5,67.1c-4.3,0-8.6,0.2-12.9,0.6c-7.8,0.7-15.4,2-23,3.8c-10.6,2.5-20.8,6-30.8,10.3
	c-8.9,3.8-17.6,8.1-26.2,12.6c-7.7,4-15.3,8-23,12c-1.1,0.6-2.3,1.1-3.5,1.6c-0.4,0.2-0.8,0.5-0.8,1.1c0.1,1.4,0.1,2.8,0.1,4.3
	c0.8-0.4,1.5-0.7,2.2-1c9.9-5.5,19.8-11,29.7-16.4c8.3-4.5,16.7-8.7,25.4-12.3c9.5-3.9,19.1-7.1,29.1-9.5c8.8-2.1,17.7-3.4,26.8-3.8
	c2.3-0.1,4.5-0.2,6.8-0.2c4.9,0,9.8,0.3,14.7,0.8c-0.6-1.1-1.2-2.3-1.9-3.4C129,67.3,124.7,67.1,120.5,67.1"/>
<path style="fill:#000003;" d="M123.9,61.1c-4.7,0-9.4,0.2-14.1,0.6c-10.7,0.9-21.1,2.9-31.4,5.7c-10.8,2.9-21.3,6.8-31.5,11.4
	c-7.4,3.3-14.7,6.9-22.1,10.4c-6.8,3.2-13.6,6.5-20.4,9.8c-1.3,0.6-2.7,1.2-4,1.8v5.2c1.1-0.5,2.1-0.9,3-1.4
	c8.2-4.2,16.4-8.4,24.6-12.7c9.3-4.9,18.8-9.5,28.5-13.5c11.9-4.9,24.2-8.7,36.9-11.1c8.8-1.7,17.8-2.7,26.8-2.9c1.1,0,2.2,0,3.2,0
	c2.8,0,5.5,0.1,8.3,0.2c-0.7-1.2-1.4-2.3-2.1-3.5C127.6,61.1,125.7,61.1,123.9,61.1"/>
<path style="fill:#000003;" d="M124.6,54.5c-2.4,0-4.8,0.1-7.1,0.3c-7.4,0.4-14.8,1.3-22.1,2.6c-8.6,1.5-17,3.7-25.4,6.3
	c-7.4,2.3-14.7,5-21.9,8C40,75,32,78.7,24,82.3c-7.7,3.4-15.2,7.1-23.1,10c-0.2,0.1-0.4,0.2-0.6,0.3v5.3c0.7-0.3,1.3-0.5,1.9-0.8
	c3.9-1.8,7.8-3.5,11.7-5.3c8.3-4,16.6-8.1,24.9-12c8.6-4.1,17.4-7.7,26.3-10.8c10.3-3.6,20.8-6.4,31.5-8.3
	c9.3-1.6,18.6-2.6,27.9-2.6c0.3,0,0.6,0,0.8,0c0.5,0,1.1,0,1.6,0C126.3,56.9,125.4,55.7,124.6,54.5"/>
<path style="fill:#000003;" d="M120.4,47.9c-2.1,0.1-4.3,0.3-6.4,0.5c-8.1,0.8-16.1,2-24,3.6c-14.1,3-27.8,7.3-41.2,12.6
	c-9.2,3.6-18.2,7.6-27.4,11.4c-6.8,2.9-13.6,5.7-20.7,7.9c-0.2,0.1-0.2,0.1-0.4,0.2l-0.1,5.6c0.5-0.2,1-0.3,1.4-0.4
	C7,87,12.4,84.8,17.8,82.5c9.8-4.3,19.4-8.7,29.2-12.9c12.9-5.5,26.2-9.9,39.8-13c9-2.1,18.2-3.5,27.4-4.3c3-0.3,5.9-0.5,8.9-0.6
	C122.2,50.4,121.3,49.1,120.4,47.9"/>
<path style="fill:#000003;" d="M115,41c-7.8,0.9-15.5,2.1-23.1,3.7c-13.7,2.9-27,6.8-40.1,11.7c-9.9,3.7-19.7,7.6-29.5,11.4
	c-7.1,2.8-14.2,5.4-21.5,7.2c-0.2,0.1-0.3,0.1-0.5,0.2v5.9c1.4-0.4,2.6-0.8,3.9-1.2c9.1-3,17.8-7,26.7-10.7
	c7.4-3.1,14.9-6.2,22.4-9.1c10.9-4.1,22-7.6,33.4-10.2c10.3-2.4,20.7-4.1,31.2-5c0.1,0,0.2,0,0.3,0C117.1,43.7,116,42.4,115,41"/>
<path style="fill:#000003;" d="M108.9,33.6c-2.8,0.5-5.7,1-8.5,1.6C90,37.3,79.8,39.9,69.6,43c-14,4.3-27.7,9.6-41.4,14.8
	C20,61,11.8,64,3.4,66.1c-1.1,0.3-2.2,0.6-3.3,0.9v6.2c0.6-0.1,1.2-0.3,1.6-0.4c7.4-2,14.5-4.7,21.6-7.6
	c11.4-4.6,22.7-9.3,34.3-13.4c9.5-3.4,19.2-6.4,29-8.8c8.6-2.1,17.2-3.9,25.9-5.1C111.3,36.4,110.1,35,108.9,33.6"/>
<path style="fill:#000003;" d="M101.6,25.3c-17.3,4-34.2,9.3-51,15.2c-6.9,2.5-13.8,4.9-20.7,7.4c-8.6,3.1-17.4,5.5-26.1,8
	c-1.2,0.3-2.4,0.7-3.6,1.1v6.1C0.6,63.1,0.8,63,1.1,63c3.7-1.1,7.4-2.1,11-3.2c9.3-2.9,18.3-6.5,27.5-9.9c8.1-3,16.3-6,24.5-8.8
	c8.1-2.8,16.4-5.2,24.7-7.4c5.6-1.5,11.2-2.8,16.9-4C104.3,28.2,103,26.7,101.6,25.3"/>
<path style="fill:#000003;" d="M93.7,17.2c-0.2,0.1-0.4,0.1-0.6,0.2c-11.5,3.2-22.9,6.9-34.2,10.7c-8.8,3-17.6,6-26.5,8.9
	c-10.3,3.3-20.6,6.4-30.9,9.6c-0.5,0.2-1,0.3-1.4,0.5v6.2c0.5-0.1,0.9-0.2,1.2-0.3c2.3-0.7,4.7-1.4,7-2.2c8.4-2.7,16.7-5.2,25.1-8.1
	c9-3,17.9-6.4,26.9-9.5c12-4.1,24.1-7.9,36.3-11.1c0.5-0.1,1-0.3,1.5-0.4C96.7,20.2,95.2,18.7,93.7,17.2"/>
<path style="fill:#000003;" d="M260.8,134c13.6,0,48.6-35.3,48.6-49.9c0-4.4,1.5-7.9,6.6-12.2c3-2.6-3.2-4.9-6.4-5.5
	c-19-3.9-3.7-4.7,5.9-10.7c2.1-1.3,3.4-1.9,3.9-6.9c0.1-0.8-10.1-3-21.1-5.7c-13.2-3.2-35.6,20.5-50.7,62.5
	C241.4,122.8,247.2,134,260.8,134"/>
<path style="fill:#000003;" d="M282.4,48.8c14.1-10,37.3,0,30.6,23.3c-8.9,30.9,9,34.8-5.6,44c-14.6,9.2-50,28.2-60.1,12.1
	C237.2,112.1,259.2,65.4,282.4,48.8"/>
<rect x="319.3" y="48.9" style="fill:#000003;" width="0.1" height="220.4"/>
<polygon style="fill:#000003;" points="0,47.1 0,53.3 0.5,53.1 0.3,47 "/>
<polygon style="fill:#000003;" points="0,57 0,63.2 0.8,63 0.3,56.9 "/>
<polygon style="fill:#000003;" points="0,75.3 0,81.3 0.5,81.1 0.7,75.1 "/>
<polygon style="fill:#000003;" points="11.9,84.9 0,89.8 0,84 2.2,83.4 "/>
<polygon style="fill:#000003;" points="1.1,97.6 0,98 0,92.5 0.8,92.2 "/>
<polygon style="fill:#000003;" points="0,100.7 0,106 0.5,105.8 0.9,100.3 "/>
<polygon style="fill:#000003;" points="0,108.5 0,113.6 0.7,113.3 0.9,108.1 "/>
<polygon style="fill:#000003;" points="1.3,120.9 0,121.6 0,116.5 1.4,115.9 "/>
<polygon style="fill:#000003;" points="2,128.6 0,129.7 0,124.7 1.6,123.8 "/>
<polygon style="fill:#000003;" points="1.9,135.9 0,137.1 0,131.9 6.6,127.8 "/>
<polygon style="fill:#000003;" points="3,143 0,145.1 0,139.7 2.5,138.2 "/>
<polygon style="fill:#000003;" points="2.8,151.3 0,153.3 0,147.7 2.5,146.2 "/>
<polygon style="fill:#000003;" points="2.2,160.8 0,162.3 0,156.7 2.5,155 "/>
<polygon style="fill:#000003;" points="2.1,169.3 0,170.9 0,165.1 2.5,163.4 "/>
<polygon style="fill:#000003;" points="5.2,176.8 0,180.7 0,174.5 7.7,168.9 "/>
<polygon style="fill:#000003;" points="1.5,199.8 0,200.6 0,199.2 1.3,199.2 "/>
<polygon style="fill:#000003;" points="1.5,220.7 0,221.1 0,218 1.3,218 "/>
<polygon style="fill:#000003;" points="0,225 0,231.6 0.3,231.5 0.3,224.9 "/>
<polygon style="fill:#000003;" points="0,234.3 0,240.6 0.2,240.6 0.1,234.3 "/>
<polygon style="fill:#000003;" points="0,249.3 0.2,249.4 0.7,243.3 0,243.2 "/>
<path d="M751.8,280.8h15.1V268l4.2-5.5l8.1,18.4h16.4l-13.4-28.3l13.3-19.7h-14.6l-14,21.3v-21.3h-15.1V280.8z M706,254.7v-10.5h6
	c3.6,0,5.3,2.6,5.3,5.3c0,2.8-1.9,5.3-5.4,5.3H706z M691,280.8H706V265h3.2l7.7,15.9h16.6l-10.1-18.4c5.9-2.8,8.6-8.4,8.6-14.3
	c0-8-5.2-15.3-18-15.3h-23V280.8z M650.6,269.9c-4.2,0-6.3-2.4-6.3-6.8v-12.8c0-4.4,2.2-6.5,6.2-6.5c3.4,0,6.3,2.2,6.3,6.5v13.1
	C656.8,267.4,654.4,269.9,650.6,269.9 M650.5,281.7c10.6,0,21.5-4.9,21.5-18.6v-12.3c0-14.1-10.7-18.7-21.7-18.7
	c-11.1,0-21.3,5.7-21.3,18.7v12.3C629,277.2,639.5,281.7,650.5,281.7 M559.8,280.8h13.5l6.9-26.8h0.3l6.7,26.8h14.3l11.7-48h-13.9
	l-5.6,24.9h-0.1l-5.5-24.9h-13.5l-5.9,24.9h-0.2l-5.7-24.9H548L559.8,280.8z M503.9,280.8h15.2v-36.4h13.4v-11.6h-42v11.6h13.4
	V280.8z M435.1,280.8h37.4v-11.7h-22.3v-6.5h17.6v-11.6h-17.6v-6.6h22.3v-11.6h-37.4V280.8z M370.9,280.8h13.6v-23.6h0.1l16.7,23.6
	h13.6v-48h-13.6v21.5h-0.1l-15.7-21.5h-14.6V280.8z"/>
<path d="M1016.7,191.3c9.3,0,20.3-4.5,20.3-16.6c0-6.4-4.1-11.2-12-13.4l-6.9-2c-3.4-0.9-6-1.2-6-3.4c0-2.2,2.3-2.9,5.4-2.9
	c2.9,0,7.4,1.3,10,3.3l7.9-9.9c-5.5-3.2-9.8-4.7-18.6-4.7c-12.1,0-19.5,7.7-19.5,16.6c0,7,4.6,11.7,11.2,13.5l8.5,2.4
	c2.3,0.6,4.2,1.1,4.2,3.4c0,2.3-3.2,2.8-5.6,2.8c-4.7,0-9.7-2.6-12.8-4.9l-7.1,10.5C1002.1,190.5,1008.7,191.3,1016.7,191.3
	 M952.2,190.5h15.2v-36.4h13.4v-11.6h-42v11.6h13.4V190.5z M878.2,190.5h15.1v-17.7h12.1v17.7h15.1v-48h-15.1v17.3h-12.1v-17.3
	h-15.1V190.5z M839,191.3c9.5,0,20.9-4.3,20.9-15.7v-12h-21.5v9.8h7v1.3c0,3.8-2.3,5.4-6.1,5.4c-4.2,0-6.3-2.8-6.3-6.8V159
	c0-4,2.8-6.1,6.7-6.1c3,0,6.1,1.8,6.1,5.6v1.1h14.1v-2c0-11.6-11.5-15.9-21-15.9c-10.7,0-21.1,5.5-21.1,17.6v13.9
	C817.7,186.5,828.3,191.3,839,191.3 M783.6,190.5h15.1v-48h-15.1V190.5z M737.9,164.3v-10.5h6c3.6,0,5.3,2.6,5.3,5.3
	c0,2.8-1.9,5.3-5.4,5.3H737.9z M722.8,190.5h15.1v-15.9h3.2l7.7,15.9h16.6l-10.1-18.4c5.9-2.8,8.6-8.4,8.6-14.3
	c0-8-5.2-15.3-18-15.3h-23V190.5z M631.7,190.5h13.6v-23.6h0.1l16.7,23.6h13.6v-48h-13.6V164H662l-15.7-21.5h-14.6V190.5z
	 M584.3,171.7l4.6-15.5h0.2l4.6,15.5H584.3z M564.7,190.5h14l2.3-7.7h16l2.3,7.7h15.1l-15.9-48H581L564.7,190.5z M495.6,190.5h13.5
	v-29.1h0.2l7.5,21.7h9.6l7.3-21.7h0.1v29.1h13.6v-48h-18.6l-7,19.5h-0.2l-7.1-19.5h-19V190.5z M454,191.4c11.4,0,21.5-6.1,21.5-18.6
	v-30.2H461v30c0,4.5-2.6,7.1-6.1,7.1c-3.7,0-6.5-2.3-6.5-7.1v-30h-15.1v30.6C433.2,185.6,440.9,191.4,454,191.4 M370.9,190.5H386
	v-17.7h12.1v17.7h15.1v-48h-15.1v17.3H386v-17.3h-15.1V190.5z"/>
<path d="M652.9,100.7h30.9v-5.8h-24.3V52.7h-6.6V100.7z M604.1,82.4l7.7-21.8h0.1l7.6,21.8H604.1z M591,100.7h6.6l4.6-12.7h19.2
	l4.4,12.7h6.9l-17.7-48H609L591,100.7z M545.9,73.3v-15h11.3c5.1,0,8.9,2.1,8.9,7.3c0,5.1-3.9,7.6-9,7.6H545.9z M545.9,95V78.8h12
	c5.6,0,9.5,2.4,9.5,8c0,5.5-4,8.2-9.5,8.2H545.9z M539.3,100.7h19.9c7.7,0,14.8-4.5,14.8-13.5c0-5.6-3.2-10.4-9.3-11.6v-0.1
	c5.2-1.8,7.9-5.9,7.9-10.7c0-8-5.4-12.1-14.1-12.1h-19.1V100.7z M498.2,95.6c-6.9,0-12.2-4.1-12.2-10.9V69c0-7.5,5.7-11.4,11.9-11.4
	c7.1,0,12.3,4,12.3,10.8v16C510.2,92,504.3,95.6,498.2,95.6 M498.2,101.5c9.8,0,18.5-6.5,18.5-17.5V68.7c0-10.6-8.4-16.9-18.7-16.9
	c-9.8,0-18.6,6.4-18.6,17.4v16C479.4,95.8,488,101.5,498.2,101.5 M430,100.7h30.9v-5.8h-24.3V52.7H430V100.7z M389.7,101.5
	c9.6,0,17.4-5.2,17.4-14.9V76H388v5.9h12.9v4c0,6.4-5.1,9.7-11.2,9.7c-6.9,0-12.2-4.1-12.2-10.9V68.8c0-7.4,5.7-11.2,11.9-11.2
	c6.2,0,11.4,3,11.4,9.4v1.3h6.3v-2c0-9.5-8.1-14.5-17.6-14.5c-10.4,0-18.5,6.6-18.5,17.2v16.2C370.9,95.8,379.4,101.5,389.7,101.5"
	/>
<path d="M1006.8,100.7h30.9v-5.8h-24.3V52.7h-6.6V100.7z M958,82.3l7.7-21.8h0.1l7.6,21.8H958z M945,100.7h6.6l4.6-12.7h19.2
	l4.4,12.7h6.9l-17.7-48h-6.1L945,100.7z M913,100.7h6.6V58.3h14.9v-5.6H898v5.6h15V100.7z M871,100.7h6.6v-48H871V100.7z
	 M830.7,101.5c9.6,0,17.4-5.2,17.4-14.9V76h-19.2v5.9h12.9v4c0,6.4-5.1,9.7-11.2,9.7c-6.9,0-12.2-4.1-12.2-10.9V68.8
	c0-7.4,5.7-11.2,11.9-11.2c6.2,0,11.4,3,11.4,9.4v1.3h6.3v-2c0-9.5-8.1-14.5-17.6-14.5c-10.4,0-18.5,6.6-18.5,17.2v16.2
	C811.9,95.8,820.4,101.5,830.7,101.5 M782.7,100.7h6.6v-48h-6.6V100.7z M730.7,94.8V58.4h11c7,0,11.7,4.2,11.7,10.6v15.2
	c0,6.8-5.1,10.6-11.5,10.6H730.7z M724.1,100.7h18.2c9.4,0,17.8-6.2,17.8-16.9V69.2c0-10.4-7.7-16.6-17.8-16.6h-18.1V100.7z"/>
</svg>
